<svg height="802" width="1367" xmlns="http://www.w3.org/2000/svg" xmlns:xlink="http://www.w3.org/1999/xlink"><mask id="a" fill="#fff"><path d="m.277.834h117.723v268.166h-117.723z" fill="#fff" fill-rule="evenodd"/></mask><mask id="b" fill="#fff"><path d="m.266.522h156.039v513.162h-156.04z" fill="#fff" fill-rule="evenodd"/></mask><mask id="c" fill="#fff"><path d="m.64.522h743.36v801.478h-743.36z" fill="#fff" fill-rule="evenodd"/></mask><mask id="d" fill="#fff"><path d="m0 .522h126.43v534.352h-126.43z" fill="#fff" fill-rule="evenodd"/></mask><mask id="e" fill="#fff"><path d="m.971.522h436.359v79.099h-436.36z" fill="#fff" fill-rule="evenodd"/></mask><mask id="f" fill="#fff"><path d="m.323.5h169.681v224.5h-169.68z" fill="#fff" fill-rule="evenodd"/></mask><mask id="g" fill="#fff"><path d="m0 .877h737.884v775.123h-737.884z" fill="#fff" fill-rule="evenodd"/></mask><mask id="h" fill="#fff"><path d="m.507.522h3.493v196.958h-3.493z" fill="#fff" fill-rule="evenodd"/></mask><mask id="i" fill="#fff"><path d="m.756.522h463.244v145.974h-463.244z" fill="#fff" fill-rule="evenodd"/></mask><g fill="#fff" fill-rule="evenodd" opacity=".236"><path d="m14.815 496.952c.039-.049.078-.096.121-.141 10.568-11.352 36.312-31.404 49.172-37.145 11.219-5.006 16.38-22.435 16.46-22.708l137.89-410.644c.337-1.895 2.975-14.971 11.834-15.025 6.8-.041 11.085-5.376 12.612-7.667 2.338-3.51 5.61-2.9 8.238-2.408 1.294.242 2.631.492 4.135.44a2.378 2.378 0 0 1 .166 4.75c-2.029.072-3.774-.255-5.177-.516-2.72-.51-2.9-.384-3.4.367-1.948 2.925-7.46 9.733-16.545 9.788-4.4.027-6.729 8.323-7.197 11.227a2.474 2.474 0 0 1 -.093.381l-137.921 410.721c-.23.803-5.812 19.722-19.061 25.636-12.149 5.422-37.45 25.14-47.56 35.966-1.052 1.363-17.453 23.064-12.515 44.715a2.378 2.378 0 0 1 -3.73 2.442 2.37 2.37 0 0 1 -.911-1.387c-5.578-24.453 12.7-47.81 13.48-48.792" mask="url(#a)" transform="translate(1249 532.478)"/><path d="m149.57-58.249a2.379 2.379 0 0 1 2.897 1.708c4.372 16.943 5 36.455 1.926 59.652-6.382 48.132-26.464 93.5-45.885 137.373-7.625 17.227-15.51 35.04-22.366 52.614-18.553 47.566-34.504 95.174-47.414 141.5-18.135 65.075-29.162 122.942-33.71 176.907a2.38 2.38 0 0 1 -4.744-.398c4.576-54.264 15.654-112.417 33.868-177.783 5.489-19.696 11.557-39.629 18.107-59.683l-31.305-11.11a2.377 2.377 0 0 1 1.594-4.48l31.194 11.071a1560.426 1560.426 0 0 1 27.976-77.75c6.894-17.675 14.8-35.537 22.446-52.81 19.286-43.568 39.229-88.619 45.521-136.075 2.993-22.58 2.399-41.5-1.816-57.84a2.377 2.377 0 0 1 1.71-2.896" mask="url(#b)" transform="translate(610 -.522)"/><path d="m6.501 509.443a779.436 779.436 0 0 1 3.876-31.767c1.372.522 3.966 1.383 7.808 2.596.01.003.02.008.03.01.004.002.007.001.01.002 11.107 3.506 32.664 9.962 65.808 19.817 12.827 3.814 23.905 7.109 29.141 8.709 7.325 2.24 13.05 2.02 17.02-.651 3.776-2.541 4.576-6.45 4.723-7.47l1.664-6.471 47.195 16.452-11.093 42.319c-11.111-2.868-22.173-5.691-33.137-8.488-33.834-8.63-68.822-17.555-102.961-27.228-6.117-1.734-12.352-3.422-18.383-5.054-3.443-.932-6.888-1.866-10.329-2.81a2.37 2.37 0 0 0 -1.372.034zm232.408 66.225a1803.753 1803.753 0 0 1 27.95 8.1c35.106 10.512 70.207 22.933 104.152 34.947l6.738 2.383c-3.295 8.15-13.56 35.943-13.544 65.76l-146.752-50.826c10.587-29.809 19.227-54.098 21.456-60.364zm-66.607 187.93 34.372 11.793c2.51.745 6.18.647 9.962-3.882 7.764-9.297 12.34-34 8.899-40.789-1.304-2.567 1.523-9.256 3.211-13.25.236-.558.454-1.078.662-1.578l33.3 12.413-1.05 2.983c-1.453 4.374-2.955 8.898-5.596 12.091-.733.887-1.61 1.7-2.539 2.56-.957.888-1.947 1.806-2.85 2.873-2.906 3.435-4.431 7.694-5.905 11.812-.453 1.263-.9 2.514-1.383 3.713l-11.814 29.373c-2.557 5.144-2.36 12.636 4.046 16.978.081.056.162.113.242.172 3.437 2.523 6.072 8.506 7.16 11.604-2.474 2.94-5.61 7.631-9.295 15.134-7.521 15.312-18.999 38.3-21.749 43.806-22.092-13.226-46.926-27.36-68.331-38.51-.062-.038-12.884-7.425-19.653-15.469 7.867-5.853 36.004-27.916 43.162-49.012.962-2.833 2.753-7.98 5.149-14.815zm43.764 120.263c1.85-3.701 9.224-18.467 16.035-32.22l22.73 8.394a2.377 2.377 0 1 0 1.651-4.46l-22.261-8.22c1.322-2.677 2.598-5.265 3.775-7.662 6.237-12.696 10.465-16.324 11.852-17.245l65.041 20.86c-1.576 2.436-3.1 4.903-4.508 7.429-5.35 9.593-9.282 19.606-12.424 28.136-6.234 16.93-12.635 31.53-19.938 45.47-.076.109-.203.177-.385.196-.354.04-2.338.01-6.583-4.33-4.812-4.917-27.37-19.701-54.985-36.348zm-2.564 116.51c1.346-.957 2.67-1.93 3.97-2.92a15.548 15.548 0 0 0 -.707 3.923c-1.075-.35-2.17-.675-3.263-1.002zm41.761 17.82c-10.785-5.39-21.754-10.868-33.693-15.168-.676-4.717 3.371-10.625 7.68-15.321 5.741-5.152 11.177-10.545 16.612-16.034 1.594-1.61 3.184-3.196 4.763-4.77 1.153-1.15 2.298-2.294 3.436-3.436 50.836 34.23 107.084 38.026 120.606 38.43-2.74 12.602-4.436 28.112-3.856 46.84-27.198-1.086-52.801-4.165-72.182-10.525-.015-.01-15.332-6.126-37.815-17.251-1.841-.911-3.69-1.836-5.55-2.766zm280.091 21.002c-.875.142-52.146 7.362-109.931 9.45l22.943-68.97c47.864 17.194 89.705 32.523 98.236 36.568 15.617 7.398 18.934 15.783 19.626 19.398-9.445.684-20.683 1.895-30.874 3.554zm46.692-4.192c-2.858-.037-6.675.078-11.063.328-.744-4.62-4.463-14.909-22.34-23.384-8.764-4.154-50.785-19.557-98.772-36.797l12.147-36.515c69.602 25.202 138.14 50.002 150.966 54.582 19.951 7.126 26.927 14.193 29.092 17.094-4.873 4.15-9.161 8.127-12.196 11.387-.028.018-3.054 2.782-7.57 1.237-17.304-5.925-26.009 1.449-30.275 8.75-.36.429-3.103 3.408-9.989 3.318zm97.006-50.45c-8.264 3.689-21.841 13.285-33.299 22.686-2.957-3.904-10.847-11.242-31.166-18.498-12.828-4.582-81.43-29.405-151.068-54.62l12.968-38.983 40.613 13.024c-.192 1.98.164 3.98 1.078 5.811a10.72 10.72 0 0 0 3.245 3.864 10.715 10.715 0 0 0 2.94 1.521l57.477 19.332c2.715.907 5.622.7 8.193-.58a10.664 10.664 0 0 0 4.396-4.048l99.8 31.392c-2.16 5.442-7.097 15.492-15.177 19.098zm118.635-326.99-49.597-15.948 12.194-35.507c1.716-4.998 3.869-10.376 6.148-16.07 9.684-24.19 21.514-53.776 7.796-76.97 12.566 4.604 25.582 9.162 36.346 12.33 23.685 6.974 22.998 23.706 22.805 25.874l-35.692 106.292zm-48.218-153.76c-12.21 7.468-59.23 35.989-97.7 56.098-3.17-9.15-15.378-37.997-46.114-49.564l10.573-43.248c13.199 3.334 25.875 6.558 37.683 9.577l-3.216 10.471c-.019.062-.036.125-.05.189-.72 3.29-.34 5.897 1.133 7.749.36.453.755.82 1.157 1.115 1.247.916 2.57 1.151 3.196 1.213 1.511.369 11.616 2.843 17.76 4.55 2.93.814 5.383.565 7.29-.738 2.295-1.568 2.862-4.071 2.99-4.89l3-11.1c23.844 6.181 40.01 10.487 42.925 11.436 3.554 1.156 10.534 3.796 19.373 7.141zm-92.933-11.133c-.004-.003-.662-.064-1.054-.581-.494-.657-.568-1.953-.207-3.656l3.25-10.586c8.57 2.194 16.632 4.27 24.038 6.185l-3.026 11.198a2.397 2.397 0 0 0 -.07.382c-.001 0-.169 1.148-.995 1.694-.868.573-2.277.353-3.306.067-6.695-1.86-17.986-4.608-18.1-4.637a2.372 2.372 0 0 0 -.531-.066zm-200.218-64.666c2.529.584 5.114 1.186 7.73 1.797-2.822 1.1-5.328 2.726-6.307 5.153l-.001.005c-1.345-1.157-6.142-5.3-10.342-9.193 5.487 1.52 8.815 2.216 8.92 2.238zm-66.652-26.61a190.2 190.2 0 0 0 5.201 3.017l-33.48 104.545a2.24 2.24 0 0 0 -.051.19c-.02.081-2.075 8.552-7.164 7.6l-42.761-12.249 41.758-121.695c2.166 1.003 4.338 1.996 6.496 3.015 9.286 4.384 20.028 9.567 30.001 15.578zm-123.556-55.302c29.594 11.835 56.566 22.757 82.717 34.697l-41.999 122.397-21.12-6.05 23.362-82.977c1.5-4.786 1.185-9.207-.957-13.075-3.83-6.919-12.24-9.509-13.464-9.854-33.78-12.883-97.205-37.9-103.96-40.566-9.037-11.34-6.692-21.51-3.093-28.081a2.363 2.363 0 0 0 .208-1.747c26.262 7.182 52.792 15.054 78.306 25.256zm-102.87-31.855a4399.348 4399.348 0 0 1 20.604 5.52 2.345 2.345 0 0 0 -.423.543c-3.38 6.171-7.328 18.23 2.303 31.654-1.59 1.682-3.13 4.645-4.643 8.927l-120.844-33.689-14.962-4.17c3.704-12.501 7.627-25.077 11.748-37.705 10.454 2.875 70.873 19.486 96.858 26.426l9.358 2.493zm-119.325 13.341 12.762 3.557-16.284 58.92a2.368 2.368 0 0 0 -.083.738c-5.09-1.35-9.327-2.472-12.415-3.29a1267.696 1267.696 0 0 1 11.206-43.087 1363.67 1363.67 0 0 1 4.814-16.838zm-20.734 80.3c1.153-5.21 2.34-10.449 3.595-15.75 6.069 1.606 13.519 3.58 21.784 5.773-.546 3.454-1.448 8.023-3.113 12.184l-.158.395c-.746 1.878-1.872 4.714-3.37 5.475-.682.347-1.575.329-2.609.308-1.142-.023-2.633-.04-4.11.565-.045-.117-.08-.232-.131-.35-1.689-3.907-5.693-6.788-11.888-8.6zm140.23 90.66-25.643-8.939 13.081-50.878 74.385 20.63c-.016.039-.04.072-.054.112l-5.042 13.61-62.039-14.058a2.379 2.379 0 0 0 -1.934 4.236c.255.187.552.326.882.4l12.295 2.787-5.93 32.1zm4.546 1.585 6.029-32.633 44.487 10.08-8.52 23.003c-.05.135-.054.274-.08.412-9.916-1.264-17.883.545-23.773 5.462zm20.792 10.345c7.553-6.689 19.374-6.928 36.126-.704 4.853 1.801 8 4.6 9.343 8.309 2.07 5.712-.405 12.364-1.747 15.29l-46.437-12.537zm83.232-122.868a4382.517 4382.517 0 0 0 21.077 8.112c.079.03.16.056.243.078.071.019 7.612 2.09 10.658 7.614 1.478 2.683 1.661 5.844.547 9.4l-34.58 122.822a2.647 2.647 0 0 0 -.053.228c-.003.017-.628 3.15-3.093 4.656-1.663 1.015-3.91 1.122-6.677.315l-22.98-6.205c1.664-3.838 4.063-11.255 1.58-18.14-.762-2.114-1.935-3.983-3.465-5.629l14.096-47.281v-.003-.002zm-42.337 73.512c.062-.166.1-.335.124-.503l14.3 3.966-12.826 43.024a26.293 26.293 0 0 0 -4.707-2.291c-4.231-1.573-8.212-2.738-11.954-3.526zm-10.586-94.175c14.576 5.722 32.301 12.661 48.472 18.937l-22.103 74.143-49.52-13.735zm-4.448-1.747-23.29 79.82-25.124-6.968 2.49-9.906.01-.015c.112-.248.165-.506.186-.763l14.609-58.09c2.766-10.337 4.918-13.293 5.704-14.083 2.823 1.114 12.548 4.95 25.415 10.005zm-61.972 60.513c5.025 1.367 8.824 2.414 10.99 3.034l-2.02 8.033-9.574-2.656.889-3.458a2.37 2.37 0 0 0 .076-.579c.01-1.725-.134-3.17-.361-4.374zm-107.656-34.381 16.281-58.908 118.37 32.999c-.25.854-.5 1.732-.748 2.661l-14.1 56.07c-14.537-4.16-83.751-22.552-120.095-32.19.122-.193.228-.4.292-.632zm284.89 207.936c-15.157-5.22-30.443-10.332-45.777-15.155l25.77-75.1 43.091 12.342a3.2 3.2 0 0 0 .176.043 8.856 8.856 0 0 0 3.617.013 20.189 20.189 0 0 0 -2.581 5.93zm49.564 17.396-6.835-2.417c-12.602-4.46-25.364-8.976-38.229-13.431l24.338-72.052a2.54 2.54 0 0 0 .06-.203c.02-.081 2.158-8.533 7.236-7.53l41.726 12.392-28.296 83.24zm4.487 1.587 52.322-153.923a173.674 173.674 0 0 0 3.14-6.796c2.82-4.747 8.028-11.372 17.084-17.424 10.323 8.872 25.808 28.526 41.363 49.449-6.208 2.011-18.673 8.06-24.97 25.159-7.339 19.93-36.125 106.485-40.693 120.236-16.228-5.448-32.35-11.086-48.246-16.701zm-1.673 4.451c30.086 10.627 60.976 21.377 91.924 30.685 19.804 5.955 36.055 6.473 49.114 6.89 5.58.178 10.864.373 15.73.943-.502 5.705.048 9.445.616 13.297.104.703.208 1.413.307 2.145.975 7.172-.68 14.467-.878 15.295l-14.936 44.902-34.842-11.215c.472-4.858-2.44-9.585-7.268-11.2l-78.54-26.246a10.668 10.668 0 0 0 -8.189.582 10.647 10.647 0 0 0 -5.024 5.24l-21.29-7.707c.148-28.757 10.263-56.104 13.276-63.61zm319.544 320.443c-1.902-3.887-4.94-8.842-9.035-14.695-9.886-14.131-31.95-43.796-39.725-54.22 19.915-.817 38.087-9.204 55.805-17.389 4.191-1.936 8.524-3.938 12.829-5.818 2.236-.976 5.374-1.896 7.628-.736 1.744.902 2.413 2.75 2.575 3.288zm-55.344-73.703c-4.099-.21-8.271-.748-12.557-1.76-13.644-3.219-27.342-8.358-40.59-13.328-6.675-2.505-13.578-5.095-20.364-7.396-.204-.062-10.777-3.24-16.023-9.454 8.96-3.764 19.93.805 20.05.856.066.029.134.054.202.076l6.942 2.25c22.397 7.268 40.326 13.079 57.426 15.179 5.893 3.028 5.483 10.208 4.914 13.577zm4.828.085c.555-3.87.325-8.92-2.198-12.986 18.702 1.05 37.048-2.834 59.933-14.735a190.383 190.383 0 0 0 5.706-3.098c2.82 2.052 4.46 4.135 4.767 6.088a3.928 3.928 0 0 1 -.221 2.091c-4.185 1.835-8.37 3.765-12.423 5.637-18.482 8.538-36.178 16.672-55.564 17.003zm-124.12-126.7 201.537 64.874c.006.004 5.302 1.997 5.564 6.019.225 3.467-3.042 11.18-27.443 23.87-24.796 12.894-43.681 16.13-64.178 13.677-.044-.005-.087-.013-.13-.015-16.583-2.004-34.23-7.72-56.928-15.088l-6.85-2.22c-1.441-.595-14.82-5.831-25.628.101l-11.889-3.928c4.517-16.74-1.344-35.304-16.15-46.17a43.223 43.223 0 0 0 -9.79-5.396l11.884-35.724zm-138.448 7.554 90.764 30.036a43.025 43.025 0 0 0 -14.963 12.774 43.162 43.162 0 0 0 -5.408 9.797c-22.983-7.594-42.071-13.9-45.847-15.149-5.076-6.656-15.235-20.645-24.546-37.458zm17.157 36.026c.04-.11.083-.218.118-.329.088.12.17.236.259.355-.126-.009-.25-.019-.377-.026zm50.45 36.424-53.382-17.667a1.877 1.877 0 0 0 -.152-.045c-.138-.035-12.306-3.251-20.04-10.06 12.677-3.964 22.199-4.96 28.32-2.937l.01.003.006.002 46.538 15.377a43.277 43.277 0 0 0 -1.3 15.327zm28.668 31.696a38.5 38.5 0 0 1 -8.4-4.68c-13.104-9.62-18.336-26.012-14.441-40.848l34.224 11.308zm28.788-71.463a38.503 38.503 0 0 1 8.473 4.712c13.104 9.619 18.335 26.01 14.441 40.845l-34.3-11.332zm-4.523-1.48-11.381 34.212-34.244-11.315a38.443 38.443 0 0 1 4.722-8.474c9.632-13.094 26.048-18.319 40.903-14.424zm21.234 60.031c-9.649 13.116-26.105 18.338-40.98 14.404l11.383-34.219 34.32 11.34a38.438 38.438 0 0 1 -4.723 8.475zm-42.698-111.461 34.84 11.215-11.873 35.696a43.574 43.574 0 0 0 -24.554.57l-100.748-33.34c-8.295-16.008-15.266-33.925-16.272-50.224-.055-.891-.09-1.782-.124-2.673l20.305 7.35a10.707 10.707 0 0 0 1.119 4.392 10.702 10.702 0 0 0 3.243 3.864c.886.65 1.876 1.165 2.946 1.521l78.54 26.246c2.71.906 5.618.7 8.189-.581 1.848-.92 3.35-2.32 4.389-4.036zm-90.374-37.12a5.934 5.934 0 0 1 4.555-.33l78.54 26.247a5.97 5.97 0 0 1 3.768 7.548 5.925 5.925 0 0 1 -3.002 3.437 5.935 5.935 0 0 1 -4.554.326l-78.54-26.245a5.908 5.908 0 0 1 -3.44-2.999 5.906 5.906 0 0 1 -.328-4.549 5.92 5.92 0 0 1 3.001-3.436zm288.98-17.255-10.879-3.392 25.445-81.402 10.88 3.394-25.445 81.4zm19.892-140.675c14.845 19.343 3.704 49.038 2.027 53.194l-8.205-2.56a2.383 2.383 0 0 0 -2.982 1.561l-26.864 85.94a2.375 2.375 0 0 0 1.562 2.978l6.008 1.873-12.26 39.033-20.163-6.806c-.21-.067-13.012-4.182-26.3-10.562l30.683-90.854c.276-.751 6.812-19.261-6.07-39.495 19.6-9.814 42.58-22.702 62.564-34.302zm-58.798 27.03c-14.964 7.701-28.33 13.907-37.397 16.785-29.753 9.441-39.82-2.752-51.477-16.867-2.163-2.62-4.4-5.33-6.804-7.947-3.811-4.15-10.179-12.605-17.888-23.146 7.383-5.76 37.78-27.252 68.152-16.873 30.768 10.514 42.782 40.362 45.414 48.048zm-107.869 94.368c-5.072-.597-10.476-.796-16.176-.978-11.295-.36-23.868-.775-38.984-4.318l29.503-82.51c.1-.323 6.12-19.973 21.604-27.488 5.336 7.171 9.756 12.864 12.737 16.111 2.318 2.525 4.515 5.185 6.64 7.758 3.291 3.986 6.54 7.904 10.162 11.31-2.459 3.188-6.256 11.255-12.7 32.222-4.89 15.909-9.008 31.89-9.049 32.048-1.9 6.541-3.063 11.658-3.737 15.845zm5.383 25.609c.028-1.945-.06-4.012-.342-6.09-.101-.749-.209-1.478-.315-2.199-.608-4.123-1.156-7.934-.356-14.304.001-.01.006-.018.007-.028.002-.016 0-.031.002-.047.552-4.346 1.723-9.87 3.948-17.53 7.09-27.565 16.463-57.22 20.761-62.441.291.225.573.462.87.68 5.165 3.79 11.253 6.4 19.188 6.837.094 5.636-7.66 29.157-21.933 62.017-7.334 18.422-11.717 22.615-16.792 27.47-.527.504-1.059 1.012-1.6 1.542-1.229 1.202-2.377 2.61-3.438 4.093zm94.43-110.581c11.995 18.469 5.934 35.618 5.87 35.795l-30.493 90.291c-4.267-2.205-8.45-4.623-12.142-7.2-3.212-2.24-6.588-4.66-10.036-7.131-9.38-6.723-19.05-13.64-27.661-18.629 1.895-3.572 3.952-8.034 6.258-13.826.036-.083 6.604-15.224 12.518-30.783 7.697-20.248 9.7-28.977 9.767-33.066 5.212-.256 11.139-1.347 18.018-3.53 7.204-2.286 16.915-6.542 27.902-11.921zm-202.751 64.94c4.542-13.673 33.331-100.24 40.65-120.113 6.225-16.905 19.304-21.618 23.524-22.723 6.326 8.566 12.61 17.24 18.506 25.38 4.756 6.567 9.262 12.787 13.336 18.32-16.793 8.662-22.993 28.99-23.259 29.89l-29.617 82.819a150.918 150.918 0 0 1 -4.273-1.21c-12.978-3.903-25.953-8.063-38.867-12.363zm10.016-204.892a416.062 416.062 0 0 0 6.012 5.326c-3.174 2.204-5.884 4.46-8.198 6.684 1.437-5.018 2.046-8.96 2.186-12.01zm-8.899-8.682c.924 1.086 2.308 2.497 3.9 4.032.64 3.277.771 11.477-6.448 28.197-2.41 4.078-3.32 7.016-3.487 7.607l-22.498 66.185-41.996-12.473a2.375 2.375 0 0 0 -.175-.043c-1.353-.292-2.589-.27-3.723-.033a20.16 20.16 0 0 0 2.581-6.045l33.171-103.582c14.22 7.526 28.13 12.761 38.675 16.155zm173.818 43.038-10.484 42.884c-14.916-4.326-31.813-2.437-49.06 5.537-10.059 4.65-17.56 10.084-20.961 12.752-2.527-3.471-5.166-7.113-7.893-10.88-19.581-27.033-43.388-59.896-59.273-75.652l-.006-.009c-.863-.938-2.242-2.681-1.782-3.824.988-2.451 8.076-4.033 12.771-4.377 41.641 9.831 91.836 22.254 136.688 33.57zm154.732 44.23c18.225 21.732 6.252 51.676-4.333 78.12-2.302 5.75-4.476 11.181-6.231 16.292l-12.223 35.592-37.3-11.995 10.83-34.645a2.376 2.376 0 0 0 -1.562-2.978l-2.656-.829c1.062-2.658 3.935-10.483 5.214-20.283 1.929-14.766-.724-27.392-7.658-36.745 23.965-13.984 42.749-25.568 44.554-26.683.036-.023.064-.052.098-.076 3.597 1.359 7.377 2.78 11.267 4.23zm-.071 240.955-96.196-32.472 12.293-39.14 4.872 1.52a2.38 2.38 0 0 0 2.981-1.56l14.616-46.756 91.332 29.37zm-30.697 91.415c-1.325.491-4.732 1.47-7.915.003-2.647-1.22-4.67-3.907-6.024-7.983 12.084-7.787 17.806-14.768 17.365-21.177-.487-7.139-8.44-10.056-8.78-10.177l-201.567-64.883 13.649-41.03c.175-.456 4.15-10.673 9.463-15.873.528-.517 1.047-1.013 1.561-1.505 3-2.87 5.907-5.66 9.281-11.12 8.405 4.868 17.968 11.708 27.243 18.358 3.466 2.484 6.857 4.916 10.086 7.168 16.998 11.859 42.888 20.171 43.983 20.519l120.839 40.793zm-1.764 5.256a8.283 8.283 0 0 0 -.193-.19l.27-.04zm-215.216 55.87-40.61-13.025 10.012-30.096c16.784 4.56 35.418-1.29 46.318-16.107a43.147 43.147 0 0 0 5.409-9.798l12.134 4.01c1.565 2.388 3.686 4.443 5.998 6.14 6.069 4.454 13.223 6.585 13.648 6.708 6.614 2.246 13.482 4.822 20.121 7.313 13.388 5.023 27.23 10.218 41.169 13.506 4.876 1.15 9.63 1.733 14.292 1.906 4.422 5.92 30.732 41.183 41.768 56.956 9.967 14.244 10.492 18.6 10.516 19.143-.003.015 0 .03-.002.044l-3.564 10.616-99.885-31.418c.465-4.853-2.448-9.571-7.268-11.185l-57.473-19.33a10.67 10.67 0 0 0 -8.192.58c-1.85.92-3.351 2.32-4.39 4.037zm69.31 30.207a5.937 5.937 0 0 1 -4.553.327l-57.473-19.331c0-.001-.003 0-.004-.002a5.925 5.925 0 0 1 -3.44-2.999 5.914 5.914 0 0 1 -.328-4.548 5.92 5.92 0 0 1 3.002-3.436 5.935 5.935 0 0 1 4.554-.328l57.473 19.33a5.969 5.969 0 0 1 1.642.849c2.035 1.494 2.974 4.185 2.13 6.7a5.924 5.924 0 0 1 -3.002 3.438zm-265.51-93.133c14.546-20.327 34.733-36.532 55.274-43.954 1.352 1.418 2.862 2.712 4.454 3.88 8.109 5.954 18.25 8.743 19.384 9.041l55.634 18.412c2.18 9.908 7.815 19.1 16.623 25.564a43.238 43.238 0 0 0 9.714 5.368l-10.025 30.137zm-7.86 12.329c1.566-2.808 3.266-5.548 5.043-8.239l152.374 48.87-12.912 38.816c-71.879-26.027-143.609-52.018-155.05-56.164 2.8-7.352 6.196-15.485 10.546-23.283zm-12.216 27.735c11.28 4.088 83.19 30.144 155.22 56.226l-12.151 36.527c-68.142-24.454-146.438-51.97-158.514-56.211 5.489-11.296 10.525-23.205 15.445-36.542zm73.446 116.38c-10.871-.228-67.252-3.118-118.304-37.154 8.287-8.492 15.931-17.171 21.918-28.119a340.876 340.876 0 0 0 2.714-5.082c.05-.082.086-.16.128-.24a339.615 339.615 0 0 0 2.533-4.949c6.592 2.316 54.54 19.167 107.771 38.1-3.856 4.995-11.6 16.935-16.76 37.444zm-.19 51.735c-1.773-55.192 17.176-81.918 21.712-87.485a18999.181 18999.181 0 0 1 46.595 16.648l-23.535 70.75c-14.826.453-29.992.55-44.772.087zm-48.534-369.883 37.269 12.908c.033.809.064 1.617.114 2.427.691 11.205 5.698 40.468 35.854 83.77.725 1.53 1.967 4.948 1.024 6.882-.15.309-.61 1.248-2.746 1.63-5.897.641-12.828 2.321-20.897 5.066l-.01.004-.066.021c-22.357 7.618-44.422 25.297-59.937 47.473l-67.264-21.573a2.388 2.388 0 0 0 -1.243-.057c-.339.075-1.165.346-2.42 1.276-1.474-3.605-4.308-9.282-8.43-12.09-4.693-3.174-3.735-8.41-2.426-10.994.032-.061.06-.124.086-.188l11.85-29.463c.505-1.255.974-2.564 1.446-3.884 1.333-3.72 2.71-7.567 5.061-10.346.716-.846 1.56-1.628 2.452-2.455.233-.216.468-.446.703-.667l39.753 13.609c-4.858 16.36-10.202 35.758-10.552 37.029a2.377 2.377 0 0 0 1.664 2.92 2.38 2.38 0 0 0 2.926-1.662c.134-.488 13.482-48.944 17.228-57.68 1.415-3.3 1.552-6.325.405-8.987-.638-1.481-1.643-2.728-2.834-3.794zm-37.375-12.944 32.871 11.385-20.516 50.02c-2.01-1.047-4.06-1.81-5.663-2.402-5.035-1.86-18.946-6.9-24.373-8.866l17.68-50.137zm-19.263 54.622c5.451 1.974 19.288 6.988 24.305 8.84 3.15 1.162 8.417 3.108 9.805 6.328.62 1.44.487 3.153-.408 5.239-1.189 2.771-3.24 9.147-5.525 16.705l-37.715-12.912c2.499-3.653 3.98-8.116 5.307-12.113l.575-1.72zm-15.937-66.813 30.704 10.634-20.886 59.303-33.226-12.386c2.023-5.702 4.338-11.79 7.05-18.54 3.37-8.393 6.975-16.864 10.465-25.057 1.977-4.646 3.945-9.295 5.893-13.954zm-67.782 68.915 34.897 10.916c1.497 5.826-1.88 26.7-8.602 34.75-2.57 3.077-4.293 2.567-4.858 2.4l-34.247-11.754c3.459-9.847 7.887-22.393 12.81-36.312zm14.508-40.96 31.59 11.561c-2.69 6.774-4.987 12.905-6.992 18.666-.327.942-.863 2.21-1.43 3.555-1.702 4.024-3.689 8.744-3.877 12.768l-32.212-10.076c4.1-11.589 8.493-23.985 12.921-36.473zm14.667-41.326 34.1 11.81a2335.35 2335.35 0 0 1 -5.768 13.655c-3.201 7.522-6.496 15.277-9.632 23.01l-31.777-11.63c4.444-12.531 8.89-25.054 13.077-36.845zm-38.572-86.328 7.539-28.76 73.986 19.975c4.093 1.192 7.643.905 10.507-.871 3.923-2.432 5.028-6.836 5.21-7.7l9.887-35.116 20.863 5.975-25.732 74.991a1173.13 1173.13 0 0 0 -11.325-3.464c-30.024-8.99-60.64-17.186-90.935-25.03zm-155.597-77.786c.906-3.46 1.815-6.918 2.724-10.377 3.44-13.072 6.996-26.585 10.246-39.956.29-.581.834-1.83 1.106-3.467.121-.237.246-.47.396-.674.642-.87 1.152-.948 3.05-.91 1.39.028 3.12.064 4.865-.824 3.098-1.576 4.564-5.264 5.633-7.957l.155-.386c1.757-4.393 2.722-9.084 3.313-12.722 30.834 8.184 70.96 18.866 94.015 25.1.37.681 1.023 2.332 1.044 5.536l-17.968 69.885a2.212 2.212 0 0 0 -.065.383c-.01.082-.321 2.644-2.734 4.228-2.686 1.764-7.149 1.767-12.906.008-5.253-1.607-16.34-4.903-29.176-8.72-20.578-6.119-48.807-14.513-63.698-19.147zm.465-63.871c4.507 1.369 7.442 3.348 8.522 5.79.464 1.05.54 2.097.456 3.006-.474 1.156-.782 2.324-1.03 3.343-3.257 13.416-6.832 27.005-10.292 40.146-.89 3.385-1.78 6.77-2.665 10.157-2.991-.955-4.934-1.615-5.464-1.872a2.32 2.32 0 0 0 -.603-.244c2.894-19.486 6.574-39.549 11.076-60.326zm360.798-32.392c-5.11-2.793-13.09-6.728-22.82-11.309l10.88-24.182a2.374 2.374 0 0 0 -1.195-3.144 2.381 2.381 0 0 0 -3.146 1.194l-10.85 24.114c-22.538-10.498-52.836-23.8-78.963-34.61 8.163-12.869 72.397-114.66 90.796-159.705 3.655 3.235 5.387 5.289 5.426 5.335.084.102.18.2.28.288 17.056 14.725 49.202 29.778 95.542 44.731 28.055 9.053 53.063 15.311 61.488 17.348-1.87 3.981-3.061 8.68-4.21 13.268-.642 2.563-1.248 4.986-1.934 7.084-2.43 7.427-4.793 15.022-7.076 22.367-1.912 6.145-3.887 12.499-5.894 18.725-11.285 35.027-25.101 75.248-46.337 110.47-10.926-2.947-19.334-5.541-23.858-7.584-8.456-3.82-15.602-6.381-22.512-8.859-10.758-3.856-20.918-7.497-35.617-15.53zm168.992 52.741c-29.795-6.794-60.22-13.732-82.227-19.497 15.72-26.354 27.371-55.286 36.929-82.766 6.63 1.548 29.79 7.023 44.758 11.414 4.845 1.422 7.837 3.212 8.899 5.319 1.273 2.538-.022 6.017-1.522 10.046-.728 1.958-1.482 3.983-2.015 6.11-.933 3.723-.527 6.913 1.207 9.483a10.224 10.224 0 0 0 2.445 2.517c2.288 1.68 4.792 2.207 5.459 2.323 3.516.911 41.231 10.676 76.032 19.452l-21.723 51.556c-19.745-4.896-44.379-10.514-68.242-15.957zm168.822 45.342c-31.272-9.854-63.581-20.018-95.915-28.202l21.726-51.563c25.408 6.39 48.329 12.002 53.884 12.892 13.623 2.182 15.53-5.438 17.374-12.807.331-1.324.674-2.694 1.089-4.073.37-1.235 1.08-2.084 2.234-2.672 4.015-2.048 11.675-.14 14.288.769.08.027.16.05.242.07l43.245 10.07-22.856 86.693a6462.066 6462.066 0 0 0 -26.828-8.505zm85.264-178.293-25.884 98.177-43.26-10.074c-1.63-.553-11.566-3.696-17.893-.47-2.29 1.169-3.89 3.084-4.628 5.54-.447 1.486-.803 2.91-1.148 4.287-1.848 7.386-2.692 10.758-12.003 9.266-13.29-2.13-133.038-33.141-134.246-33.454a2.251 2.251 0 0 0 -.268-.053c-.019-.004-3.249-.518-4.796-2.84-.934-1.402-1.11-3.301-.521-5.647.47-1.872 1.176-3.77 1.86-5.608 1.728-4.644 3.515-9.447 1.314-13.833-1.72-3.426-5.473-5.89-11.813-7.75-14.742-4.325-37.312-9.68-44.546-11.373a1358.067 1358.067 0 0 0 7.61-22.997c2.013-6.25 3.992-12.616 5.907-18.771 2.279-7.33 4.636-14.907 7.054-22.302.74-2.257 1.366-4.76 2.028-7.407 1.348-5.377 2.739-10.939 5.157-14.746 9.573-15.082 31.588-1.675 32.522-1.097.214.133.45.232.694.292.538.13 54.017 13.105 65.24 16.005 10.33 2.67 16.28-3.99 18.126-8.135 1.09-1.43 7.772-9.956 17.701-17.64 14.24-11.018 28.065-15.196 41.093-12.42 33.949 7.239 45.854 34.925 45.38 50.676-.316 10.53 3.797 16.374 7.302 19.424 3.56 3.1 7.254 4.001 7.928 4.145zm-788.041 109.384c-8.635 39.445-14.373 76.358-17.345 111.615a2.377 2.377 0 0 0 2.172 2.568 2.38 2.38 0 0 0 2.571-2.17c.212-2.506.451-5.03.69-7.555.166.092.34.173.53.225 3.447.947 6.896 1.882 10.346 2.815 6.017 1.63 12.239 3.313 18.329 5.04 34.2 9.69 69.219 18.622 103.082 27.261 31.556 8.05 63.912 16.304 95.952 25.26-2.439 6.856-11.358 31.93-22.157 62.338l-.004.008v.005a99740.63 99740.63 0 0 0 -14.635 41.233l-.005.01c-.001.004 0 .006-.002.01-15.72 44.325-31.219 88.152-34.872 98.915-7.674 22.612-43.052 47.868-43.41 48.12a2.374 2.374 0 0 0 -.566 3.312c3.279 4.634 8.54 9.083 13.173 12.483 4.952 3.635 9.186 6.072 9.52 6.263 48.699 25.37 117.869 67.85 126.285 76.47 2.95 3.011 5.552 4.8 7.888 5.458-.112.206-.219.416-.332.622-7.274 13.305-17.313 23.318-27.942 33.92-1.585 1.58-3.18 3.172-4.783 4.789a565.119 565.119 0 0 1 -9.02 8.936c-.728.579-4.018 3.258-7.5 7.007-5.693 5.102-11.68 9.946-18.258 14.372-.04.027-.071.06-.109.09-8.204-2.07-16.926-3.463-26.385-3.829a2.38 2.38 0 0 0 -1.5 4.294c.37.271.823.438 1.316.458 28.735 1.11 50.787 12.131 72.112 22.79 1.865.933 3.72 1.86 5.567 2.775 22.672 11.217 38.151 17.396 38.306 17.457 74.348 24.403 237.539 1.467 239.113 1.211 16.83-2.74 36.536-4.252 45.864-4.13 9.955.13 13.815-5.15 13.974-5.374a2.41 2.41 0 0 0 .12-.186c4.932-8.551 13.01-10.764 24.69-6.765 7.343 2.513 12.308-2.211 12.516-2.413 10.144-10.893 35.532-30.69 47.71-36.125 13.249-5.914 18.83-24.833 19.06-25.635l137.92-410.721a2.39 2.39 0 0 0 .103-.443c1.042-7.842-3.083-24.469-26.159-31.258-18.031-5.306-42.59-14.602-60.522-21.39-9.013-3.41-16.132-6.105-19.825-7.307-11.854-3.857-181.217-47.27-274.238-68.78-.391-.081-33.751-7.073-65.208-26.035-10.164-6.127-21.034-11.372-30.426-15.807-29.679-14.015-60.049-26.335-93.82-39.841-33.775-13.506-69.177-22.925-103.415-32.034l-9.353-2.492c-25.791-6.89-85.546-23.316-96.604-26.358.888-2.69 1.763-5.377 2.668-8.071 15.189 4.2 33.436 8.992 52.747 14.062 41.08 10.785 87.64 23.008 117.688 33.004 32.65 10.861 124.399 51.041 149.06 64.52 15.026 8.211 25.838 12.087 36.294 15.835 6.823 2.446 13.878 4.975 22.16 8.715 4.932 2.228 14.167 5.052 26.124 8.248.084.03.17.046.255.067 22.382 5.972 54.222 13.234 85.385 20.34 24.638 5.619 50.115 11.43 70.128 16.425 33.09 8.262 66.252 18.711 98.323 28.816l8.485 2.671a7086.192 7086.192 0 0 1 54.944 17.548 8192.634 8192.634 0 0 1 21.568 7.012c2.114.69 4.33 1.555 6.678 2.472 5.555 2.169 11.3 4.411 16.811 4.784l.784.029c4.128.149 7.528-1.65 10.816-3.39 2.908-1.54 5.655-2.994 8.576-2.837 2.398.13 4.68 1.164 7.095 2.26 2.62 1.188 5.33 2.417 8.43 2.588 5.92.327 12.413-2.201 16.818-4.38a2.375 2.375 0 0 0 1.077-3.185 2.382 2.382 0 0 0 -3.189-1.075c-3.892 1.925-9.558 4.163-14.444 3.892-2.207-.121-4.401-1.116-6.725-2.17-2.71-1.229-5.513-2.5-8.807-2.677-4.238-.228-7.706 1.607-11.06 3.382-2.86 1.514-5.562 2.944-8.422 2.84l-.707-.024c-4.7-.32-10.1-2.427-15.321-4.466-2.411-.941-4.69-1.83-6.931-2.562a8256.778 8256.778 0 0 0 -45.194-14.617l57.327-217.443a2.381 2.381 0 0 0 -4.603-1.211l-6.1 23.135-34.166-8.826a2.215 2.215 0 0 0 -.16-.035c-.474-.096-11.934-2.567-11.447-18.773.65-21.672-16.352-48.478-49.145-55.467-34.325-7.318-62.593 30.487-63.78 32.1a2.38 2.38 0 0 0 -.284.507c-.343.81-3.66 7.96-12.658 5.634-10.764-2.783-60.173-14.777-64.941-15.935-9.107-5.539-27.872-11.846-37.75 1.376-14.094-3.37-119.012-29.26-156.296-61.268-1.295-1.52-10.91-12.278-32.38-23.766-20.443-10.938-41.017-21.36-56.656-29.218-5.546-2.786-8.875-5.851-9.897-9.114-.683-2.182-.342-4.503 1.046-7.091.962-1.427 11.207-16.82 20.547-37.852 9.051-20.385 19.099-50.433 15.565-77.815a2.38 2.38 0 0 0 -4.72.609c3.392 26.29-6.391 55.448-15.197 75.278-9.586 21.59-20.093 37.052-20.198 37.207a1.86 1.86 0 0 0 -.125.204c-2.051 3.764-2.542 7.425-1.46 10.881.985 3.141 3.27 6.033 6.821 8.64 1.578 1.158 3.405 2.259 5.478 3.3 15.615 7.845 36.153 18.25 56.548 29.163 9.64 5.158 16.814 10.188 21.834 14.205-17.766 44.779-85.608 151.922-91.43 161.085-15.936-6.537-29.99-11.99-39.28-15.08-30.192-10.046-76.832-22.29-117.982-33.093-19.182-5.036-37.309-9.797-52.415-13.972 7.37-21.694 15.297-43.499 23.8-65.297 6.856-17.577 14.742-35.391 22.368-52.619 19.42-43.873 39.5-89.24 45.882-137.369 3.075-23.197 2.446-42.708-1.926-59.651a2.379 2.379 0 0 0 -4.608 1.187c4.215 16.34 4.809 35.26 1.816 57.84-6.293 47.455-26.234 92.504-45.518 136.07-7.646 17.276-15.554 35.14-22.448 52.816-18.604 47.696-34.608 95.455-47.567 141.951-6.334 22.731-11.785 44.573-16.42 65.7-.022.068-.053.132-.069.203-.02.089-.024.177-.034.266z" mask="url(#c)" transform="translate(623 -.522)"/><path d="m110.882 44.844c-.04.048-.08.093-.124.139-10.855 11.078-37.101 30.47-50.103 35.881-11.343 4.72-16.946 22.012-17.033 22.283l-148.31 407.004c-.385 1.886-3.356 14.891-12.213 14.72-6.8-.132-11.219 5.092-12.803 7.344-2.427 3.45-5.682 2.756-8.297 2.197-1.287-.275-2.618-.558-4.122-.544a2.378 2.378 0 0 1 -.045-4.754c2.03-.02 3.766.351 5.161.649 2.706.578 2.89.457 3.409-.28 2.022-2.875 7.705-9.542 16.79-9.365 4.399.085 6.938-8.15 7.48-11.041.024-.128.059-.256.103-.378l148.341-407.081c.251-.797 6.313-19.568 19.708-25.143 12.283-5.112 38.078-24.18 48.461-34.746 1.087-1.335 18.036-22.612 13.651-44.381a2.378 2.378 0 0 1 3.791-2.348c.436.338.758.827.876 1.41 4.952 24.586-13.915 47.47-14.72 48.433" mask="url(#d)" transform="translate(0 -.522)"/><path d="m434.798 79.616c-29.724-1.907-51.948-13.731-73.441-25.167-1.835-.976-3.66-1.947-5.478-2.905-22.191-11.693-37.348-18.196-37.362-18.207-72.571-25.877-235.055-7.217-236.623-7.004-11.49 1.571-37.078 3.2-40.112 3.39-3.087.874-11.419 2.98-15.179-5.96-2.158-5.136-11.356-8.124-15.136-7.664-5.184.634-7.591-3.718-8.15-6.173l-2.3-11.524a2.377 2.377 0 0 1 1.869-2.795 2.381 2.381 0 0 1 2.799 1.866l2.286 11.459c.063.28.688 2.72 2.919 2.448 5.256-.64 16.878 2.874 20.102 10.54 1.648 3.917 4.192 4.743 9.73 3.16.165-.047.335-.076.508-.087.28-.018 28.227-1.758 40.018-3.37 1.065-.146 75.878-8.732 147.088-6.247l1.243-22.495a2.378 2.378 0 0 1 2.507-2.243 2.376 2.376 0 0 1 2.246 2.503l-1.238 22.418c32.7 1.376 64.27 5.191 87.159 13.355.152.064 15.469 6.634 37.847 18.425 1.823.96 3.653 1.935 5.495 2.914 12.241 6.513 24.736 13.141 38.686 17.921 1.318.177 10.78 1.065 17.648-8.398a2.382 2.382 0 0 1 3.385-.482 2.374 2.374 0 0 1 .468 3.273c-3.396 4.68-7.317 7.306-10.927 8.759 6.981 1.772 14.344 3.037 22.248 3.544a2.378 2.378 0 1 1 -.305 4.746" mask="url(#e)" transform="translate(131 -.522)"/><path d="m147.993 39.12c-2.92 3.765-8.342 4.452-12.111 1.535a8.617 8.617 0 0 1 -1.537-12.098c2.92-3.764 8.342-4.452 12.111-1.535a8.617 8.617 0 0 1 1.537 12.098"/><path d="m6.234 568.513a2.379 2.379 0 0 1 -2.853-1.781c-3.939-17.049-4.07-36.57-.405-59.681 7.606-47.954 28.838-92.796 49.37-136.163 8.062-17.026 16.399-34.632 23.7-52.027 19.759-47.08 36.918-94.267 51.004-140.249 19.787-64.594 32.285-122.162 38.208-175.994a2.38 2.38 0 0 1 4.732.52c-5.957 54.13-18.514 111.983-38.388 176.864-5.989 19.55-12.563 39.322-19.622 59.203l31.012 11.903a2.377 2.377 0 0 1 -1.708 4.438l-30.902-11.86a1560.666 1560.666 0 0 1 -29.947 77.013c-7.342 17.494-15.702 35.149-23.785 52.223-20.39 43.062-41.474 87.591-48.974 134.873-3.567 22.497-3.455 41.425.342 57.867a2.377 2.377 0 0 1 -1.784 2.851" mask="url(#f)" transform="translate(581 576.478)"/><path d="m731.726 555.312a779.018 779.018 0 0 1 -4.684 31.658c-1.358-.556-3.929-1.482-7.74-2.793-.01-.003-.019-.009-.03-.012l-.009-.001c-11.013-3.787-32.399-10.79-65.282-21.484-12.725-4.14-23.715-7.714-28.909-9.447-7.265-2.425-12.995-2.351-17.031.218-3.84 2.445-4.739 6.332-4.912 7.347l-1.828 6.427-46.761-17.647 12.168-42.022a12300.46 12300.46 0 0 0 32.91 9.327c33.604 9.488 68.352 19.3 102.234 29.838 6.071 1.888 12.26 3.734 18.248 5.519 3.419 1.02 6.839 2.04 10.254 3.072.465.14.94.13 1.372 0zm-230.644-72.112a1802.701 1802.701 0 0 1 -27.735-8.807c-34.827-11.402-69.6-24.713-103.228-37.585l-6.675-2.553c3.502-8.063 14.471-35.587 15.216-65.394l145.409 54.54c-11.344 29.53-20.6 53.592-22.987 59.799zm71.374-186.175-34.06-12.664c-2.49-.81-6.162-.804-10.058 3.627-7.999 9.097-13.202 33.675-9.935 40.55 1.237 2.6-1.76 9.214-3.549 13.165-.25.55-.48 1.065-.7 1.56l-32.974-13.256 1.126-2.955c1.564-4.336 3.18-8.82 5.902-11.945.755-.868 1.652-1.658 2.603-2.495.98-.863 1.992-1.755 2.922-2.8 2.994-3.36 4.627-7.578 6.205-11.657.484-1.252.963-2.49 1.477-3.677l12.558-29.063c2.687-5.077 2.681-12.572-3.612-17.075a9.606 9.606 0 0 1 -.237-.179c-3.372-2.609-5.853-8.657-6.862-11.782 2.548-2.877 5.803-7.486 9.678-14.893 7.908-15.115 19.968-37.805 22.858-43.238 21.747 13.783 46.214 28.544 67.328 40.234.06.04 12.69 7.75 19.251 15.964-8.013 5.652-36.702 26.991-44.396 47.898-1.034 2.809-2.956 7.909-5.525 14.68zm-40.686-121.338c-1.943 3.654-9.691 18.227-16.85 31.803l-22.509-8.97a2.377 2.377 0 1 0 -1.764 4.416l22.045 8.785c-1.39 2.642-2.732 5.196-3.97 7.562-6.558 12.534-10.878 16.053-12.288 16.939l-64.488-22.507c1.638-2.395 3.224-4.824 4.697-7.312 5.592-9.454 9.778-19.364 13.136-27.812 6.664-16.765 13.435-31.199 21.09-44.947.08-.108.208-.172.39-.187.355-.03 2.338.049 6.47 4.495 4.686 5.039 26.86 20.392 54.041 37.735zm5.533-116.407a155.52 155.52 0 0 0 -4.044 2.818c.456-1.344.717-2.643.807-3.903 1.066.377 2.153.73 3.237 1.085zm-41.293-18.875c10.644 5.663 21.47 11.417 33.296 16.02.555 4.732-3.64 10.535-8.068 15.12-5.87 5.005-11.442 10.258-17.015 15.606a1065.832 1065.832 0 0 1 -4.883 4.647c-1.182 1.121-2.356 2.236-3.522 3.348-49.948-35.512-106.081-40.736-119.588-41.484 3.06-12.528 5.15-27.99 5.048-46.726 27.162 1.777 52.678 5.505 71.89 12.356.015.011 15.172 6.514 37.363 18.207 1.818.958 3.643 1.93 5.48 2.906zm-279.466-28.117c.88-.12 52.317-6.034 110.137-6.653l-24.693 68.365c-47.41-18.406-88.847-34.795-97.273-39.055-15.424-7.792-18.525-16.26-19.125-19.89 9.46-.445 20.724-1.37 30.954-2.768zm-46.784 3.002c2.857.11 6.676.092 11.068-.046.626 4.636 4.082 15.017 21.738 23.944 8.654 4.376 50.27 20.842 97.802 39.296l-13.074 36.195c-68.937-26.963-136.821-53.499-149.526-58.403-19.763-7.63-26.556-14.873-28.647-17.827 4.977-4.024 9.365-7.892 12.482-11.073.029-.018 3.124-2.703 7.599-1.045 17.147 6.363 26.038-.787 30.489-7.976.37-.42 3.188-3.33 10.07-3.064zm-98.26 47.968c8.355-3.477 22.173-12.725 33.867-21.832 2.857 3.978 10.557 11.515 30.685 19.285 12.707 4.906 80.654 31.465 149.626 58.443l-13.957 38.64-40.268-14.053a10.655 10.655 0 0 0 -.929-5.837 10.717 10.717 0 0 0 -3.145-3.944 10.693 10.693 0 0 0 -2.902-1.596l-56.965-20.787a10.67 10.67 0 0 0 -8.205.371 10.664 10.664 0 0 0 -4.498 3.935l-98.967-33.919c2.298-5.386 7.49-15.306 15.659-18.706zm-126.927 323.867 49.174 17.205-13.094 35.185c-1.844 4.953-4.133 10.274-6.556 15.908-10.297 23.936-22.877 53.212-9.755 76.748-12.445-4.923-25.34-9.81-36.02-13.25-23.5-7.574-22.387-24.284-22.139-26.446zm44.283 154.938c12.398-7.156 60.13-34.473 99.098-53.597 2.937 9.228 14.405 38.376 44.836 50.72l-11.671 42.966c-13.11-3.669-25.7-7.213-37.426-10.532l3.48-10.386c.021-.061.04-.124.055-.187.804-3.272.49-5.887-.934-7.776a6.037 6.037 0 0 0 -1.128-1.144c-1.224-.947-2.541-1.217-3.165-1.294-1.501-.407-11.54-3.137-17.638-5-2.908-.888-5.367-.702-7.307.552-2.333 1.51-2.965 3.998-3.113 4.813l-3.281 11.02c-23.68-6.785-39.731-11.501-42.62-12.523-3.524-1.247-10.435-4.063-19.186-7.632zm92.62 13.492c.004.002.66.08 1.039.607.477.67.517 1.967.113 3.66l-3.519 10.5a10677.78 10677.78 0 0 1 -23.872-6.794l3.31-11.117c.037-.125.064-.252.08-.38.002 0 .198-1.144 1.038-1.67.882-.55 2.285-.294 3.307.018 6.645 2.03 17.862 5.064 17.975 5.095.173.047.351.074.53.08zm198.504 69.735c-2.513-.648-5.082-1.315-7.681-1.993 2.848-1.027 5.395-2.59 6.436-4.991l.001-.005c1.315 1.19 6.005 5.456 10.104 9.454-5.446-1.659-8.756-2.44-8.86-2.465zm65.952 28.295a189.936 189.936 0 0 0 -5.122-3.147l36.132-103.66a2.21 2.21 0 0 0 .057-.189c.022-.08 2.293-8.497 7.355-7.415l42.436 13.332-44.846 120.594c-2.14-1.057-4.286-2.106-6.417-3.179-9.171-4.619-19.778-10.073-29.595-16.336zm122.107 58.428c-29.283-12.584-55.968-24.188-81.806-36.79l45.104-121.288 20.96 6.584-25.47 82.356c-1.621 4.747-1.419 9.175.624 13.096 3.653 7.014 11.993 9.817 13.208 10.193 33.442 13.737 96.208 40.359 102.893 43.196 8.745 11.566 6.142 21.673 2.376 28.15a2.364 2.364 0 0 0 -.252 1.741c-26.07-7.847-52.391-16.39-77.637-27.238zm102.026 34.46c-6.78-1.99-13.609-3.996-20.458-6.043.165-.154.317-.326.437-.53 3.537-6.084 7.79-18.039-1.496-31.703 1.634-1.641 3.248-4.564 4.87-8.806l119.946 36.749 14.85 4.55a1442.091 1442.091 0 0 1 -12.704 37.393c-10.377-3.14-70.354-21.28-96.154-28.88zm119.624-10.304-12.667-3.88 17.78-58.488c.075-.244.107-.492.102-.735l12.327 3.604a1268.508 1268.508 0 0 1 -12.3 42.79 1362.506 1362.506 0 0 1 -5.242 16.71zm22.774-79.746a1098.445 1098.445 0 0 1 -3.996 15.654c-6.025-1.76-13.422-3.924-21.629-6.326.634-3.44 1.652-7.984 3.423-12.1l.167-.392c.794-1.858 1.992-4.664 3.508-5.387.691-.33 1.584-.289 2.616-.242 1.142.052 2.632.106 4.124-.46.042.118.074.234.122.352 1.588 3.95 5.518 6.931 11.665 8.9zm-137.875-94.197 25.407 9.588-14.373 50.53-73.835-22.516c.017-.038.041-.07.057-.11l5.387-13.478 61.66 15.631a2.38 2.38 0 0 0 2.042-4.185 2.364 2.364 0 0 0 -.871-.423l-12.22-3.097zm-4.503-1.7-6.859 32.47-44.216-11.21 9.103-22.777c.054-.135.062-.273.09-.41 9.882 1.516 17.892-.09 23.906-4.856zm-20.522-10.87c-7.722 6.495-19.545 6.433-36.133-.215-4.805-1.924-7.88-4.8-9.128-8.543-1.924-5.763.72-12.35 2.137-15.242l46.102 13.714zm-86.336 120.712a4402.364 4402.364 0 0 0 -20.863-8.645 2.512 2.512 0 0 0 -.242-.084c-.07-.021-7.557-2.283-10.46-7.883-1.409-2.72-1.512-5.885-.307-9.41l37.698-121.903c.024-.076.042-.152.058-.227.005-.017.71-3.134 3.212-4.576 1.688-.973 3.936-1.022 6.683-.145l22.813 6.786c-1.76 3.796-4.347 11.15-2.04 18.095.708 2.132 1.832 4.03 3.32 5.715l-15.296 46.906-.001.004v.002zm44.196-72.412a2.369 2.369 0 0 0 -.136.5l-14.195-4.329 13.918-42.683a26.3 26.3 0 0 0 4.647 2.41c4.19 1.68 8.14 2.946 11.861 3.828zm8.183 94.414a13915.681 13915.681 0 0 0 -47.974-20.164l23.985-73.556 49.154 14.989-25.165 78.73zm4.402 1.86 25.316-79.203 24.94 7.605-2.744 9.84-.009.015a2.29 2.29 0 0 0 -.206.757l-16.084 57.7c-3.028 10.263-5.256 13.164-6.06 13.933-2.795-1.185-12.419-5.267-25.153-10.648zm63.494-58.918c-4.988-1.495-8.76-2.638-10.91-3.312l2.225-7.98 9.503 2.899-.977 3.434a2.374 2.374 0 0 0 -.09.576c-.053 1.725.053 3.173.25 4.383zm106.746 37.108-17.777 58.474-117.49-35.997c.271-.848.543-1.72.815-2.642l15.525-55.692c14.425 4.527 83.149 24.674 119.235 35.232-.127.19-.238.395-.308.625zm-279.499-215.113c15.02 5.605 30.17 11.104 45.376 16.314l-27.675 74.421-42.763-13.434a3.21 3.21 0 0 0 -.174-.047 8.855 8.855 0 0 0 -3.616-.105 20.19 20.19 0 0 0 2.731-5.862zm-49.104-18.65 6.77 2.59c12.485 4.78 25.128 9.618 37.875 14.399l-26.166 71.41a2.537 2.537 0 0 0 -.065.201c-.022.08-2.375 8.476-7.426 7.343l-41.396-13.449zm-4.446-1.7-56.227 152.543a173.634 173.634 0 0 0 -3.311 6.713c-2.942 4.674-8.316 11.165-17.523 16.985-10.094-9.132-25.074-29.173-40.09-50.485 6.257-1.853 18.873-7.583 25.603-24.516 7.845-19.738 38.826-105.532 43.744-119.163 16.084 5.86 32.057 11.906 47.804 17.923zm1.786-4.408c-29.805-11.388-60.41-22.92-91.111-33.011-19.647-6.458-35.88-7.39-48.924-8.138-5.573-.32-10.85-.648-15.701-1.342.648-5.691.194-9.444-.276-13.308-.086-.706-.173-1.419-.253-2.153-.791-7.194 1.05-14.445 1.268-15.268l16.076-44.507 34.545 12.097c-.597 4.845 2.195 9.645 6.98 11.382l77.845 28.234c2.687.974 5.599.841 8.2-.373a10.65 10.65 0 0 0 5.157-5.111l21.087 8.245c-.88 28.744-11.69 55.825-14.893 63.253zm-311.275-328.464c1.803 3.934 4.713 8.966 8.658 14.92 9.523 14.378 30.824 44.594 38.33 55.214-19.929.31-38.309 8.232-56.23 15.963-4.239 1.83-8.62 3.72-12.972 5.49-2.26.92-5.42 1.76-7.645.543-1.72-.947-2.342-2.81-2.49-3.354l32.35-88.776zm53.45 75.085c4.091.315 8.249.958 12.508 2.078 13.557 3.565 27.12 9.05 40.237 14.357 6.61 2.673 13.444 5.437 20.168 7.91.203.067 10.692 3.513 15.778 9.86-9.054 3.534-19.904-1.312-20.022-1.366a2.627 2.627 0 0 0 -.2-.082l-6.882-2.425c-22.205-7.836-39.98-14.1-57.02-16.635-5.815-3.176-5.222-10.344-4.568-13.697zm-4.824-.208c-.654 3.854-.553 8.91 1.865 13.037-18.669-1.524-37.108 1.892-60.289 13.207a189.692 189.692 0 0 0 -5.782 2.952c-2.767-2.123-4.354-4.247-4.611-6.207a3.925 3.925 0 0 1 .275-2.085c4.23-1.728 8.463-3.55 12.562-5.32 18.694-8.064 36.592-15.746 55.98-15.584zm120.85 129.815-199.818-69.977c-.005-.005-5.249-2.132-5.408-6.159-.136-3.472 3.326-11.1 28.043-23.164 25.116-12.26 44.078-15.015 64.506-12.04.043.004.086.014.129.017 16.526 2.425 34.021 8.589 56.525 16.53l6.791 2.394c1.426.632 14.666 6.206 25.622.55l11.785 4.23c-4.942 16.62.444 35.326 14.968 46.566a43.227 43.227 0 0 0 9.649 5.643l-12.79 35.41zm138.596-4.031-89.97-32.335a43.027 43.027 0 0 0 15.284-12.39 43.152 43.152 0 0 0 5.656-9.655l45.446 16.31c4.905 6.782 14.705 21.026 23.584 38.07zm-16.233-36.45c-.043.107-.09.214-.127.324-.085-.121-.164-.24-.25-.36l.377.035zm-49.506-37.696 52.915 19.018c.05.018.1.036.15.05.137.038 12.22 3.563 19.778 10.566-12.774 3.64-22.319 4.393-28.386 2.216l-.012-.005-.004-.001-46.131-16.555a43.275 43.275 0 0 0 1.69-15.289zm-27.85-32.415a38.506 38.506 0 0 1 8.277 4.893c12.855 9.95 17.667 26.47 13.396 41.201l-33.925-12.174zm-30.6 70.709a38.504 38.504 0 0 1 -8.35-4.927c-12.856-9.949-17.667-26.468-13.396-41.2 9.13 3.278 21.1 7.573 34 12.202zm4.484 1.594 12.249-33.911 33.944 12.18a38.432 38.432 0 0 1 -4.936 8.352c-9.963 12.845-26.507 17.651-41.257 13.38zm-19.698-60.552c9.98-12.867 26.564-17.668 41.333-13.357l-12.25 33.918-34.02-12.208a38.435 38.435 0 0 1 4.937-8.353zm39.844 112.511-34.544-12.097 12.78-35.383a43.572 43.572 0 0 0 24.56.054l99.866 35.891c7.884 16.214 14.396 34.302 14.987 50.622.032.892.044 1.784.055 2.675l-20.11-7.863a10.71 10.71 0 0 0 -1.007-4.42 10.7 10.7 0 0 0 -3.144-3.945 10.697 10.697 0 0 0 -2.906-1.596l-77.846-28.234a10.666 10.666 0 0 0 -8.2.373 10.667 10.667 0 0 0 -4.491 3.923zm89.398 39.407a5.935 5.935 0 0 1 -4.562.212l-77.846-28.234a5.97 5.97 0 0 1 -3.575-7.641 5.925 5.925 0 0 1 3.09-3.36 5.936 5.936 0 0 1 4.56-.211l77.847 28.234a5.907 5.907 0 0 1 3.362 3.085 5.908 5.908 0 0 1 .212 4.556 5.922 5.922 0 0 1 -3.088 3.359zm-289.326 9.9 10.79 3.668-27.512 80.728-10.79-3.668zm-23.47 140.124c-14.348-19.714-2.453-49.116-.671-53.228l8.138 2.767a2.382 2.382 0 0 0 3.02-1.484l29.045-85.229a2.375 2.375 0 0 0 -1.486-3.017l-5.957-2.025 13.25-38.709 19.983 7.317c.208.073 12.901 4.511 26.022 11.227l-32.988 90.045c-.295.743-7.3 19.081 5.062 39.636-19.844 9.313-43.144 21.612-63.418 32.7zm59.468-25.526c15.155-7.318 28.674-13.183 37.813-15.829 29.984-8.682 39.737 3.764 51.03 18.17 2.095 2.675 4.263 5.441 6.599 8.118 3.705 4.246 9.854 12.86 17.292 23.593-7.527 5.57-38.461 26.283-68.56 15.135-30.49-11.293-41.74-41.437-44.174-49.187zm110.238-91.595c5.056.726 10.453 1.062 16.147 1.39 11.282.647 23.84 1.38 38.86 5.307l-31.595 81.733c-.109.32-6.627 19.811-22.298 26.93-5.15-7.305-9.424-13.108-12.322-16.43-2.253-2.583-4.381-5.298-6.44-7.924-3.19-4.068-6.337-8.068-9.87-11.566 2.538-3.123 6.54-11.09 13.517-31.887 5.293-15.78 9.817-31.65 9.862-31.808 2.066-6.49 3.36-11.576 4.14-15.745zm-4.73-25.737c-.077 1.944-.042 4.013.187 6.097.083.752.172 1.483.26 2.206.503 4.138.953 7.961-.009 14.309l-.008.028c-.003.016-.001.03-.003.046-.662 4.331-1.974 9.824-4.393 17.426-7.79 27.374-17.916 56.781-22.346 61.892-.285-.233-.562-.477-.853-.702-5.066-3.921-11.086-6.684-19.007-7.324.05-5.636 8.401-28.952 23.507-61.439 7.8-18.229 12.289-22.31 17.486-27.033.54-.49 1.084-.985 1.639-1.501 1.259-1.171 2.443-2.55 3.54-4.005zm-97.217 108.145c-11.52-18.768-5.024-35.758-4.955-35.932l32.784-89.488c4.209 2.313 8.329 4.837 11.955 7.506 3.154 2.322 6.467 4.827 9.85 7.385 9.205 6.96 18.696 14.12 27.178 19.326-1.986 3.522-4.156 7.93-6.608 13.662-.039.083-6.99 15.052-13.299 30.455-8.21 20.046-10.436 28.72-10.606 32.808-5.217.123-11.17 1.063-18.103 3.07-7.259 2.102-17.076 6.11-28.196 11.208zm204.341-59.764c-4.89 13.553-35.875 99.36-43.698 119.04-6.653 16.742-19.848 21.12-24.095 22.119-6.106-8.725-12.167-17.556-17.854-25.844-4.587-6.685-8.933-13.018-12.864-18.652 17.007-8.233 23.724-28.397 24.012-29.29l31.719-82.038c1.395.413 2.803.846 4.241 1.318 12.873 4.231 25.738 8.72 38.54 13.347zm-15.234 204.57a416.335 416.335 0 0 0 -5.874-5.477c3.228-2.122 5.995-4.307 8.366-6.473-1.565 4.98-2.274 8.906-2.492 11.95zm8.674 8.906c-.895-1.108-2.243-2.554-3.795-4.13-.556-3.292-.479-11.493 7.164-28.023 2.513-4.016 3.498-6.93 3.68-7.516l24.177-65.592 41.665 13.536c.057.02.115.035.173.049 1.345.326 2.582.336 3.722.127a20.165 20.165 0 0 0 -2.735 5.978l-35.8 102.704c-14.023-7.885-27.794-13.472-38.251-17.133zm-172.664-47.443 11.573-42.604c14.8 4.704 31.74 3.245 49.185-4.287 10.175-4.393 17.812-9.635 21.28-12.215 2.437 3.534 4.982 7.242 7.613 11.076 18.885 27.523 41.847 60.98 57.325 77.135l.007.01c.838.96 2.172 2.737 1.683 3.867-1.05 2.426-8.176 3.827-12.879 4.052-41.376-10.887-91.238-24.583-135.787-37.034zm-153.555-48.15c-17.666-22.189-4.933-51.818 6.323-77.984 2.447-5.69 4.759-11.064 6.644-16.129l13.126-35.269 36.981 12.939-11.709 34.359a2.376 2.376 0 0 0 1.486 3.016l2.634.896c-1.13 2.63-4.2 10.38-5.73 20.145-2.303 14.711.027 27.4 6.72 36.927-24.313 13.37-43.386 24.473-45.22 25.542-.036.021-.065.05-.1.073-3.56-1.45-7.303-2.967-11.155-4.515zm6.211-240.875 95.338 34.908-13.287 38.813-4.832-1.643a2.38 2.38 0 0 0 -3.02 1.484l-15.802 46.369-90.555-31.683zm33.016-90.606c1.338-.456 4.769-1.348 7.913.2 2.616 1.286 4.57 4.023 5.82 8.133-12.28 7.477-18.178 14.31-17.9 20.728.305 7.15 8.181 10.267 8.517 10.397l199.849 69.987-14.69 40.67c-.186.45-4.42 10.564-9.865 15.628-.54.502-1.072.985-1.599 1.464-3.072 2.792-6.049 5.508-9.56 10.881-8.28-5.08-17.664-12.162-26.768-19.045-3.4-2.57-6.73-5.089-9.899-7.422-16.69-12.288-42.36-21.255-43.446-21.63l-119.76-43.853 31.388-86.138zm1.898-5.208.188.195c-.09.01-.182.021-.271.033zm216.57-50.38 40.265 14.053-10.776 29.832c-16.662-4.985-35.44.388-46.714 14.924a43.164 43.164 0 0 0 -5.656 9.657l-12.028-4.317c-1.504-2.428-3.572-4.535-5.84-6.29-5.953-4.608-13.05-6.92-13.472-7.054-6.555-2.413-13.355-5.162-19.929-7.822-13.255-5.361-26.961-10.906-40.81-14.548-4.846-1.274-9.583-1.978-14.24-2.27-4.269-6.03-29.673-41.95-40.303-57.999-9.6-14.493-10.014-18.86-10.024-19.404.003-.014 0-.029.002-.043l3.834-10.522 99.052 33.947c-.588 4.84 2.203 9.63 6.98 11.366l56.962 20.786a10.67 10.67 0 0 0 8.205-.371 10.67 10.67 0 0 0 4.491-3.925zm-68.519-31.96a5.937 5.937 0 0 1 4.56-.21l56.962 20.785.005.002a5.923 5.923 0 0 1 3.363 3.085 5.914 5.914 0 0 1 .211 4.556 5.923 5.923 0 0 1 -3.088 3.359 5.935 5.935 0 0 1 -4.561.212l-56.962-20.786a5.972 5.972 0 0 1 -1.62-.89c-1.997-1.546-2.866-4.26-1.959-6.753a5.926 5.926 0 0 1 3.09-3.36zm263.052 99.854c-15.06 19.95-35.653 35.637-56.376 42.535-1.316-1.452-2.792-2.785-4.354-3.994-7.954-6.157-18.022-9.202-19.147-9.53l-55.147-19.82c-1.926-9.96-7.326-19.292-15.966-25.98a43.235 43.235 0 0 0 -9.574-5.612l10.79-29.872zm8.17-12.125c-1.636 2.767-3.404 5.463-5.25 8.107l-151.08-52.728 13.898-38.475a805388.828 805388.828 0 0 1 153.569 60.089c-2.987 7.278-6.59 15.322-11.136 23.007zm12.92-27.416c-11.173-4.373-82.394-32.249-153.736-60.154l13.078-36.207c67.496 26.179 145.065 55.678 157.029 60.224-5.774 11.153-11.112 22.93-16.37 36.137zm-70.456-118.21c10.861.505 67.15 4.827 117.319 40.15-8.501 8.279-16.364 16.76-22.627 27.553a340.292 340.292 0 0 0 -2.843 5.012c-.052.08-.09.157-.134.235-.9 1.616-1.782 3.247-2.66 4.884-6.53-2.482-54.034-20.547-106.764-40.828 3.982-4.895 12.028-16.634 17.709-37.006zm1.508-51.712c.366 55.218-19.258 81.454-23.934 86.903-15.327-5.898-31-11.948-46.157-17.826l25.33-70.129c14.835-.077 29.998.213 44.761 1.052zm39.093 370.996-36.929-13.852c-.013-.81-.023-1.619-.052-2.43-.406-11.218-4.666-40.599-33.708-84.654-.686-1.548-1.84-4.996-.848-6.906.158-.304.641-1.231 2.786-1.559 5.912-.49 12.884-1.995 21.02-4.533l.01-.004.066-.02c22.544-7.046 45.052-24.159 61.128-45.933l66.692 23.277c.399.138.826.17 1.24.088.342-.066 1.175-.316 2.453-1.214 1.382 3.64 4.07 9.389 8.12 12.3 4.61 3.292 3.519 8.503 2.144 11.053-.033.06-.063.122-.09.185l-12.598 29.152a107.922 107.922 0 0 0 -1.544 3.847c-1.427 3.684-2.901 7.495-5.323 10.213-.738.828-1.6 1.588-2.513 2.392-.239.21-.48.434-.72.65l-39.394-14.616c5.274-16.231 11.11-35.487 11.492-36.749a2.377 2.377 0 0 0 -1.589-2.962 2.38 2.38 0 0 0 -2.967 1.587c-.147.485-14.725 48.586-18.692 57.223-1.499 3.264-1.713 6.284-.634 8.975.6 1.497 1.573 2.768 2.736 3.864l-22.287 50.625zm37.033 13.89-32.571-12.216 21.785-49.483c1.981 1.098 4.012 1.912 5.6 2.546 4.985 1.986 18.763 7.38 24.139 9.483zm20.649-54.114c-5.4-2.112-19.105-7.476-24.072-9.456-3.12-1.241-8.336-3.32-9.641-6.575-.583-1.455-.406-3.164.542-5.226 1.258-2.74 3.47-9.062 5.949-16.559l37.374 13.866c-2.592 3.588-4.187 8.012-5.615 11.974l-.618 1.706-3.92 10.27zm14.229 67.196-30.423-11.41 22.39-58.753 32.9 13.226c-2.168 5.65-4.638 11.677-7.521 18.355-3.582 8.304-7.402 16.681-11.1 24.783a2358.792 2358.792 0 0 0 -6.246 13.8zm69.516-67.168-34.608-11.8c-1.348-5.862 2.56-26.644 9.485-34.52 2.648-3.011 4.357-2.458 4.917-2.275l33.938 12.62c-3.71 9.755-8.456 22.184-13.732 35.974zm-15.548 40.576-31.285-12.36c2.862-6.703 5.315-12.773 7.465-18.481.352-.934.92-2.189 1.522-3.518 1.803-3.98 3.91-8.647 4.2-12.665l31.945 10.891a55379.986 55379.986 0 0 1 -13.847 36.133zm-15.714 40.94-33.79-12.673c2.024-4.507 4.064-9.007 6.115-13.503 3.393-7.438 6.884-15.108 10.216-22.759l31.47 12.434c-4.762 12.415-9.525 24.821-14.011 36.502zm36.36 87.282-8.27 28.558-73.454-21.85c-4.06-1.295-7.616-1.098-10.525.605-3.983 2.331-5.2 6.705-5.405 7.565l-10.778 34.853-20.705-6.504 27.635-74.313a1172.67 1172.67 0 0 0 11.233 3.752c29.786 9.75 60.183 18.722 90.268 27.334zm153.564 81.716c-.994 3.436-1.991 6.87-2.988 10.305-3.772 12.98-7.672 26.398-11.26 39.682a12.6 12.6 0 0 0 -1.195 3.439 4.92 4.92 0 0 1 -.413.663c-.664.853-1.176.918-3.073.832-1.388-.063-3.116-.143-4.884.7-3.137 1.497-4.696 5.146-5.834 7.812l-.164.381c-1.87 4.347-2.953 9.012-3.637 12.634-30.615-8.966-70.457-20.664-93.345-27.483-.352-.69-.963-2.357-.901-5.56l19.742-69.406c.036-.124.061-.252.075-.38.012-.083.389-2.636 2.84-4.158 2.73-1.696 7.192-1.585 12.903.32 5.21 1.74 16.21 5.317 28.944 9.459 20.415 6.64 48.422 15.75 63.19 20.76zm-2.093 63.84c-4.47-1.484-7.354-3.537-8.372-6.007-.437-1.06-.487-2.109-.379-3.015.504-1.145.842-2.304 1.115-3.316 3.598-13.33 7.518-26.823 11.311-39.872.977-3.36 1.952-6.723 2.924-10.085 2.966 1.03 4.891 1.74 5.414 2.01.19.12.392.2.597.259-3.39 19.406-7.58 39.37-12.61 60.025zm-361.507 23.206c5.038 2.923 12.916 7.06 22.525 11.886l-11.493 23.899a2.374 2.374 0 0 0 1.115 3.172 2.381 2.381 0 0 0 3.175-1.113l11.46-23.83c22.265 11.068 52.214 25.136 78.057 36.606-8.488 12.657-75.295 112.782-94.836 157.344-3.572-3.327-5.251-5.423-5.29-5.471a2.412 2.412 0 0 0 -.272-.295c-16.675-15.154-48.426-31.019-94.37-47.146-27.816-9.763-52.657-16.655-61.026-18.905 1.97-3.933 3.28-8.6 4.546-13.157.707-2.546 1.375-4.952 2.114-7.032 2.619-7.364 5.174-14.896 7.643-22.18 2.068-6.094 4.205-12.396 6.37-18.57 12.173-34.728 27.01-74.585 49.137-109.255 10.847 3.224 19.187 6.03 23.657 8.188 8.355 4.033 15.434 6.776 22.28 9.428 10.655 4.128 20.72 8.027 35.208 16.431zm-167.592-57.02c29.611 7.55 59.85 15.26 81.703 21.581-16.387 25.947-28.771 54.573-39.026 81.8-6.59-1.715-29.602-7.778-44.453-12.548-4.807-1.545-7.753-3.41-8.76-5.543-1.208-2.57.175-6.015 1.777-10.004.778-1.94 1.583-3.945 2.17-6.057 1.028-3.698.703-6.897-.965-9.51a10.224 10.224 0 0 0 -2.38-2.579c-2.244-1.737-4.734-2.328-5.398-2.461-3.492-1-40.946-11.72-75.512-21.379l23.03-50.987c19.614 5.396 44.097 11.64 67.814 17.687zm-167.613-49.62c31.011 10.646 63.051 21.628 95.166 30.632l-23.033 50.994c-25.237-7.034-48.007-13.228-53.538-14.258-13.563-2.528-15.663 5.041-17.695 12.36-.365 1.316-.742 2.677-1.192 4.045-.402 1.225-1.133 2.055-2.302 2.614-4.066 1.946-11.675-.156-14.264-1.131a2.31 2.31 0 0 0 -.24-.076l-42.974-11.166 25.058-86.085c9.1 3.164 17.925 6.21 26.602 9.185zm-89.779 176.068 28.377-97.487 42.989 11.17c1.617.595 11.468 3.99 17.875.924 2.32-1.11 3.968-2.983 4.768-5.419.485-1.475.877-2.89 1.257-4.257 2.036-7.336 2.965-10.685 12.235-8.958 13.233 2.467 132.15 36.513 133.35 36.857.087.025.177.045.266.06.02.004 3.236.6 4.723 2.961.898 1.425 1.025 3.328.377 5.658-.517 1.859-1.272 3.74-2.002 5.559-1.846 4.599-3.755 9.354-1.667 13.795 1.632 3.47 5.322 6.027 11.612 8.048 14.628 4.698 37.054 10.626 44.242 12.502-2.877 7.763-5.6 15.4-8.192 22.796-2.173 6.196-4.314 12.51-6.385 18.615-2.465 7.269-5.014 14.784-7.62 22.115-.797 2.238-1.486 4.723-2.216 7.353-1.484 5.341-3.016 10.866-5.531 14.61-9.954 14.833-31.621.872-32.54.27a2.38 2.38 0 0 0 -.686-.309c-.535-.144-53.666-14.475-64.81-17.66-10.259-2.932-16.376 3.575-18.328 7.672-1.127 1.402-8.024 9.755-18.145 17.184-14.515 10.653-28.443 14.478-41.396 11.37-33.754-8.098-44.95-36.078-44.075-51.811.585-10.519-3.377-16.466-6.804-19.604-3.48-3.19-7.15-4.184-7.82-4.345l-33.854-9.67zm790.573-89.312c9.637-39.213 16.313-75.968 20.183-111.138a2.376 2.376 0 0 0 -2.105-2.622 2.38 2.38 0 0 0 -2.626 2.103c-.275 2.5-.58 5.018-.883 7.536a2.327 2.327 0 0 0 -.523-.239 2660.194 2660.194 0 0 0 -10.272-3.077c-5.973-1.782-12.15-3.624-18.193-5.504-33.943-10.557-68.722-20.376-102.355-29.874-31.34-8.849-63.475-17.924-95.277-27.691 2.613-6.792 12.167-31.631 23.738-61.755l.004-.007.001-.005a104166.03 104166.03 0 0 0 15.681-40.849l.006-.01c0-.003 0-.006.002-.009 16.844-43.911 33.455-87.33 37.381-97.997 8.248-22.41 44.258-46.758 44.622-47.002a2.375 2.375 0 0 0 .65-3.295c-3.159-4.716-8.306-9.297-12.85-12.814-4.857-3.76-9.028-6.304-9.356-6.503-48.038-26.6-116.103-70.825-124.297-79.656-2.872-3.085-5.427-4.94-7.747-5.657.118-.204.23-.41.349-.613 7.61-13.116 17.902-22.87 28.797-33.198 1.624-1.54 3.261-3.091 4.903-4.667a566.13 566.13 0 0 1 9.246-8.703c.742-.56 4.1-3.155 7.676-6.815 5.82-4.955 11.929-9.645 18.618-13.902.04-.026.073-.06.11-.088 8.15 2.279 16.833 3.893 26.28 4.499a2.38 2.38 0 0 0 1.609-4.254 2.377 2.377 0 0 0 -1.304-.492c-28.698-1.84-50.461-13.419-71.507-24.617-1.842-.979-3.673-1.953-5.495-2.914-22.379-11.79-37.696-18.361-37.849-18.426-73.702-26.286-237.424-7.507-239.005-7.291-16.895 2.311-36.632 3.322-45.954 2.963-9.949-.384-13.942 4.797-14.107 5.018-.044.059-.086.12-.124.182-5.149 8.423-13.28 10.43-24.854 6.134-7.277-2.698-12.361 1.898-12.574 2.095-10.419 10.632-36.304 29.777-48.616 34.902-13.395 5.575-19.457 24.346-19.708 25.143l-148.341 407.08a2.39 2.39 0 0 0 -.114.441c-1.242 7.812 2.459 24.54 25.354 31.912 17.89 5.764 42.205 15.68 59.958 22.922 8.923 3.64 15.97 6.514 19.632 7.81 11.751 4.156 179.954 51.86 272.396 75.73.389.091 33.56 7.929 64.524 27.685 10.004 6.383 20.737 11.902 30.013 16.575 29.312 14.765 59.358 27.853 92.774 42.214 33.42 14.36 68.571 24.676 102.565 34.653l9.287 2.729c25.607 7.543 84.924 25.482 95.9 28.805-.955 2.667-1.898 5.33-2.872 8-15.077-4.584-33.196-9.839-52.372-15.398-40.792-11.826-87.026-25.23-116.808-35.985-32.364-11.689-123.058-54.188-147.369-68.29-14.81-8.59-25.52-12.74-35.878-16.753-6.758-2.618-13.747-5.326-21.93-9.275-4.874-2.353-14.034-5.41-25.906-8.91-.083-.032-.168-.05-.252-.073-22.223-6.54-53.868-14.609-84.84-22.505-24.487-6.243-49.808-12.7-69.686-18.202-32.869-9.1-65.754-20.39-97.558-31.307l-8.413-2.886a7079.809 7079.809 0 0 1 -54.48-18.939 8005.517 8005.517 0 0 1 -21.382-7.558c-2.095-.743-4.29-1.665-6.613-2.64-5.498-2.31-11.184-4.698-16.684-5.211l-.782-.048c-4.123-.255-7.568 1.458-10.9 3.114-2.946 1.464-5.73 2.848-8.644 2.616-2.395-.19-4.649-1.282-7.036-2.438-2.59-1.255-5.268-2.552-8.361-2.802-5.91-.478-12.466 1.885-16.925 3.951a2.375 2.375 0 0 0 -1.157 3.156 2.382 2.382 0 0 0 3.16 1.157c3.94-1.826 9.661-3.92 14.539-3.525 2.203.178 4.371 1.228 6.667 2.34 2.679 1.298 5.448 2.64 8.736 2.9 4.23.337 7.744-1.41 11.142-3.098 2.898-1.441 5.636-2.802 8.492-2.626l.707.042c4.69.44 10.034 2.684 15.202 4.854 2.387 1.003 4.64 1.949 6.863 2.738a8187.99 8187.99 0 0 0 44.808 15.76l-62.85 215.916a2.38 2.38 0 0 0 4.57 1.328l6.688-22.972 33.931 9.691c.053.015.105.028.16.04.47.108 11.863 2.869 10.964 19.057-1.202 21.649 15.111 48.878 47.715 56.699 34.128 8.189 63.35-28.886 64.577-30.468a2.39 2.39 0 0 0 .297-.5c.364-.8 3.862-7.863 12.798-5.31 10.69 3.055 59.777 16.302 64.515 17.581 8.961 5.769 27.56 12.55 37.771-.416 14.005 3.728 118.229 32.276 154.685 65.222 1.256 1.553 10.594 12.551 31.765 24.582 20.156 11.454 40.458 22.396 55.892 30.649 5.473 2.926 8.723 6.075 9.66 9.362.629 2.2.228 4.511-1.225 7.063-.997 1.402-11.632 16.529-21.504 37.317-9.568 20.148-20.378 49.931-17.544 77.394a2.38 2.38 0 0 0 4.734-.488c-2.72-26.369 7.803-55.268 17.11-74.868 10.134-21.34 21.032-36.53 21.14-36.681.048-.064.09-.131.13-.2 2.147-3.711 2.73-7.36 1.737-10.841-.904-3.166-3.115-6.114-6.599-8.81-1.547-1.198-3.346-2.345-5.391-3.44-15.41-8.239-35.677-19.162-55.787-30.59-9.506-5.402-16.55-10.612-21.465-14.756 18.901-44.312 89.451-149.697 95.505-158.708 15.764 6.94 29.674 12.75 38.883 16.075 29.927 10.809 76.24 24.235 117.101 36.081 19.047 5.522 37.047 10.742 52.042 15.3a1564.236 1564.236 0 0 1 -25.456 64.67c-7.302 17.398-15.64 35.006-23.702 52.034-20.531 43.365-41.762 88.206-49.368 136.158-3.665 23.11-3.533 42.632.405 59.68a2.379 2.379 0 0 0 4.637-1.07c-3.797-16.441-3.909-35.37-.341-57.867 7.5-47.279 28.582-91.806 48.97-134.869 8.084-17.075 16.444-34.732 23.787-52.228 19.814-47.207 37.03-94.543 51.169-140.695 6.911-22.562 12.917-44.258 18.089-65.261.024-.068.056-.13.074-.201.023-.089.028-.177.041-.265z" mask="url(#g)" transform="translate(0 25.478)"/><path d="m26.247 151.409c.05-.038.1-.072.153-.105 13.164-8.21 43.248-20.873 57.161-23.07 12.136-1.915 21.663-17.4 21.812-17.642l240.204-360.597c.818-1.743 6.775-13.682 15.342-11.429 6.577 1.73 12.105-2.306 14.176-4.121 3.173-2.781 6.171-1.34 8.581-.181 1.186.57 2.413 1.16 3.878 1.5a2.373 2.373 0 0 1 1.778 2.854 2.38 2.38 0 0 1 -2.857 1.776c-1.977-.46-3.576-1.228-4.863-1.846-2.493-1.199-2.7-1.125-3.378-.53-2.644 2.317-9.74 7.457-18.527 5.146-4.255-1.119-8.666 6.285-9.875 8.967a2.471 2.471 0 0 1 -.19.344l-240.251 360.664c-.432.715-10.754 17.53-25.088 19.792-13.143 2.074-42.712 14.53-55.295 22.352-1.372 1.041-22.866 17.726-23.743 39.915a2.38 2.38 0 0 1 -4.756-.189c.99-25.06 24.727-42.855 25.738-43.6" mask="url(#h)" transform="translate(1363 -.522)"/><path d="m955.366 9.95c28.435 8.854 47.242 25.579 65.43 41.754 1.553 1.38 3.096 2.755 4.637 4.113 18.805 16.59 32 26.48 32.011 26.494 64.417 42.24 226.723 62.377 228.298 62.538 11.537 1.18 36.788 5.624 39.781 6.154 3.206-.123 11.8-.208 13.344 9.367.885 5.498 9.118 10.57 12.9 11.012 5.188.605 6.5 5.401 6.463 7.918l-.486 11.741a2.38 2.38 0 0 1 -4.755-.197l.484-11.673c.005-.287-.027-2.806-2.259-3.067-5.26-.616-15.724-6.769-17.047-14.978-.677-4.194-2.955-5.596-8.71-5.362a2.395 2.395 0 0 1 -.514-.035c-.277-.049-27.847-4.94-39.685-6.15-1.07-.11-75.8-9.386-144.416-28.574l-6.517 21.569a2.38 2.38 0 0 1 -2.966 1.588 2.375 2.375 0 0 1 -1.591-2.962l6.494-21.493c-31.453-9.039-61.233-20.182-81.55-33.506-.131-.099-13.466-10.091-32.43-26.82-1.545-1.363-3.093-2.741-4.652-4.126-10.358-9.213-20.936-18.597-33.365-26.528-1.24-.482-10.225-3.574-19.133 4.005-1 .85-2.503.73-3.355-.269l-.048-.06a2.375 2.375 0 0 1 .318-3.291c4.404-3.747 8.835-5.377 12.687-5.938-6.366-3.367-13.223-6.33-20.785-8.685a2.375 2.375 0 0 1 -1.563-2.978 2.38 2.38 0 0 1 2.98-1.561m396.588 137.251c3.727-2.97 9.158-2.361 12.132 1.36a8.616 8.616 0 0 1 -1.362 12.12c-3.726 2.97-9.158 2.361-12.132-1.36a8.617 8.617 0 0 1 1.362-12.12"/><path d="m9.543-516.16a779.937 779.937 0 0 1 12.026-29.662c1.188.86 3.468 2.366 6.86 4.537.01.005.018.013.028.018a.097.097 0 0 0 .008.004c9.81 6.275 28.94 18.116 58.37 36.254 11.39 7.02 21.226 13.083 25.864 15.99 6.489 4.068 12.074 5.346 16.603 3.8 4.309-1.472 6.1-5.038 6.508-5.984l3.294-5.815 41.276 28.163-21.745 37.971c-9.98-5.658-19.924-11.263-29.78-16.815-30.416-17.135-61.869-34.854-92.308-53.075-5.454-3.265-11.033-6.517-16.43-9.662a3053.898 3053.898 0 0 1 -9.24-5.4 2.369 2.369 0 0 0 -1.334-.324zm207.12 124.403a1801.308 1801.308 0 0 1 24.873 15.09c31.153 19.284 61.804 40.409 91.445 60.84l5.884 4.052c-5.306 7.011-22.463 31.175-30.223 59.967l-128.435-87.25c17.994-26.026 32.67-47.23 36.455-52.7zm-113.31 164.115 30.11 20.328c2.23 1.373 5.799 2.233 10.631-1.155 9.92-6.957 20.779-29.617 19.227-37.067-.589-2.818 3.885-8.54 6.556-11.958.373-.477.719-.922 1.05-1.351l28.914 20.648-1.792 2.607c-2.543 3.845-5.173 7.823-8.555 10.218-.939.666-1.997 1.222-3.119 1.812-1.155.607-2.35 1.236-3.5 2.032-3.702 2.56-6.285 6.275-8.782 9.868-.766 1.101-1.524 2.193-2.303 3.225l-19.065 25.286c-3.81 4.3-5.573 11.585-.52 17.444.063.075.127.152.189.23 2.66 3.329 3.644 9.791 3.887 13.065-3.156 2.196-7.406 5.909-12.92 12.194-11.254 12.827-28.33 32.036-32.42 36.635-17.882-18.516-38.174-38.624-55.933-54.957-.05-.053-10.503-10.521-14.94-20.048 9.12-3.605 42.039-17.586 54.45-36.091 1.668-2.486 4.74-6.99 8.835-12.965zm10.896 127.498a10846.31 10846.31 0 0 0 23.882-26.937l19.757 14.018c1.072.76 2.557.51 3.319-.561a2.376 2.376 0 0 0 -.562-3.315l-19.349-13.729c1.975-2.24 3.881-4.406 5.642-6.414 9.332-10.636 14.361-13.038 15.94-13.567l57.357 37.061c-2.157 1.942-4.271 3.929-6.29 6-7.666 7.87-14.073 16.515-19.33 23.934-10.434 14.722-20.421 27.154-31.107 38.712-.101.086-.242.119-.422.09-.352-.054-2.26-.598-5.227-5.893-3.364-6-21.289-26.142-43.61-49.399zm-32.855 111.822c1.55-.574 3.082-1.17 4.595-1.786-.76 1.199-1.32 2.4-1.705 3.603-.948-.617-1.92-1.216-2.89-1.817zm35.674 28.069c-9.007-8.01-18.17-16.152-28.575-23.41.577-4.73 6.025-9.38 11.41-12.794 6.886-3.48 13.54-7.273 20.219-11.158 1.959-1.14 3.907-2.258 5.842-3.367 1.414-.81 2.817-1.617 4.213-2.424 40.157 46.275 93.474 64.573 106.424 68.481-5.93 11.455-11.613 25.988-15.936 44.22-25.977-8.124-49.893-17.757-66.947-28.94-.011-.014-13.205-9.903-32.011-26.494-1.54-1.358-3.085-2.733-4.639-4.114zm264.948 93.147c-.882-.09-52.265-6.459-108.601-19.476l40.135-60.622c41.728 29.053 78.128 54.74 85.31 60.864 13.15 11.205 14.165 20.164 13.89 23.834-9.297-1.796-20.462-3.55-30.734-4.6zm46.174 8.1c-2.75-.78-6.465-1.661-10.767-2.562.486-4.653-.422-15.555-15.472-28.389-7.378-6.29-43.933-32.094-85.768-61.223l21.248-32.095c60.629 42.44 120.335 84.216 131.524 91.975 17.405 12.07 22.297 20.708 23.63 24.071-5.785 2.739-10.963 5.464-14.743 7.821-.032.011-3.674 1.892-7.63-.774-15.163-10.222-25.49-5.368-31.513.57-.46.321-3.884 2.485-10.509.606zm106.812-23.472c-8.94 1.412-24.551 7.144-38.064 13.24-1.838-4.538-7.542-13.676-25.268-25.968-11.191-7.76-70.953-49.574-131.612-92.036l22.685-34.265 35.815 23.142a10.653 10.653 0 0 0 -.475 5.891 10.71 10.71 0 0 0 2.125 4.575c.685.856 1.505 1.61 2.443 2.234l50.452 33.618a10.67 10.67 0 0 0 8.062 1.571 10.673 10.673 0 0 0 5.3-2.764l88.17 56.272c-3.505 4.693-10.891 13.11-19.633 14.49zm199.8-284.84-43.727-28.301 21.031-31.109c2.96-4.38 6.441-9.011 10.126-13.915 15.657-20.836 34.793-46.324 27.597-72.287 10.932 7.716 22.31 15.502 31.876 21.36 21.05 12.896 16.024 28.873 15.272 30.915l-62.175 93.338zm-6.462-160.998c-13.736 4.034-66.57 19.338-108.955 28.744-.675-9.66-4.94-40.686-31.6-59.85l21.486-39.005a13534.603 13534.603 0 0 1 33.884 19.05l-5.834 9.273a2.164 2.164 0 0 0 -.097.17c-1.554 2.99-1.867 5.605-.928 7.776.23.531.515.988.827 1.377.965 1.21 2.182 1.781 2.77 2.003 1.362.75 10.473 5.767 15.96 9.014 2.616 1.548 5.05 1.946 7.231 1.184 2.624-.917 3.824-3.186 4.161-3.944l5.79-9.936c21.41 12.17 35.896 20.535 38.463 22.208 3.13 2.042 9.18 6.406 16.842 11.936zm-86.823-34.927c-.003-.003-.622-.232-.866-.834-.306-.763-.039-2.034.754-3.583l5.898-9.376c7.7 4.348 14.944 8.45 21.595 12.225l-5.841 10.025c-.065.112-.121.23-.168.35 0 0-.462 1.065-1.402 1.377-.987.328-2.29-.252-3.209-.796-5.979-3.537-16.164-9.128-16.266-9.185a2.383 2.383 0 0 0 -.496-.203zm-176.447-114.523c2.289 1.223 4.627 2.476 6.994 3.746-3.011.328-5.855 1.247-7.433 3.335l-.002.004c-.997-1.466-4.548-6.715-7.589-11.566 4.902 2.894 7.934 4.433 8.03 4.481zm-57.414-43.03a190.264 190.264 0 0 0 4.235 4.265l-59.583 92.226a2.147 2.147 0 0 0 -.1.17c-.04.074-4.233 7.718-8.898 5.474l-38.092-22.95 72.048-106.632c1.83 1.532 3.668 3.056 5.486 4.601 7.822 6.649 16.843 14.447 24.904 22.845zm-104.872-85.54c25.487 19.125 48.68 36.688 70.815 55.02l-72.463 107.245-18.814-11.335 44.191-74.036c2.697-4.23 3.546-8.58 2.486-12.873-1.895-7.676-9.338-12.364-10.43-13.016-29.256-21.227-83.968-61.881-89.795-66.213-5.768-13.299-.853-22.508 4.336-27.916a2.364 2.364 0 0 0 .656-1.632c23.482 13.766 47.045 28.268 69.018 44.756zm-91.015-57.518a4373.62 4373.62 0 0 1 18.455 10.69 2.349 2.349 0 0 0 -.55.413c-4.873 5.08-11.828 15.695-6.03 31.16-1.974 1.211-4.233 3.672-6.81 7.412l-107.89-63.964-13.358-7.92a1443.82 1443.82 0 0 1 21.173-33.346c9.344 5.496 63.347 37.251 86.626 50.713zm-118.682-18.163 11.394 6.755-31.085 52.65c-.13.22-.22.453-.273.69l-11.128-6.405a1268.54 1268.54 0 0 1 22.054-38.685c2.964-4.996 5.98-9.999 9.038-15.005zm-40.956 72.134c2.472-4.73 4.983-9.48 7.578-14.271 5.44 3.13 12.118 6.974 19.526 11.242-1.428 3.193-3.49 7.37-6.182 10.953l-.256.34c-1.21 1.62-3.036 4.064-4.68 4.41-.75.157-1.607-.093-2.6-.382-1.097-.32-2.532-.722-4.115-.524-.014-.124-.018-.245-.036-.37-.611-4.213-3.726-8.036-9.235-11.398zm111.752 124.014-22.428-15.301 25.896-45.72 66.438 39.271c-.025.033-.057.06-.081.093l-8.416 11.83-56.233-29.713a2.38 2.38 0 0 0 -3.216.99 2.375 2.375 0 0 0 .991 3.212l11.144 5.889-14.095 29.45zm3.975 2.713 14.33-29.938 40.323 21.307-14.223 19.991c-.085.118-.125.251-.184.378-9.246-3.801-17.409-4.126-24.378-.912zm17.377 15.398c9.037-4.493 20.512-1.649 35.063 8.719 4.216 3 6.525 6.521 6.854 10.452.51 6.054-3.615 11.833-5.674 14.31l-41.565-24.187zm112.396-96.974c6.632 4.865 12.865 9.42 18.235 13.315.068.05.14.096.215.139.062.037 6.804 3.998 8.303 10.124.728 2.975.081 6.075-1.922 9.218l-65.411 109.586a2.61 2.61 0 0 0 -.11.207c-.008.015-1.429 2.878-4.2 3.69-1.871.548-4.068.066-6.53-1.433l-20.568-11.968c2.607-3.274 6.857-9.81 6.254-17.104-.184-2.24-.829-4.349-1.877-6.336l25.936-41.981.003-.003v-.002zm-60.043 59.96c.103-.144.184-.297.25-.453l12.773 7.55-23.6 38.202a26.27 26.27 0 0 0 -3.948-3.437c-3.676-2.619-7.215-4.78-10.623-6.514zm14.335-93.679a13857.33 13857.33 0 0 0 41.861 30.895l-40.672 65.833-44.23-26.144 43.04-70.584zm-3.84-2.843-43.297 71.006-22.441-13.264 4.987-8.916c.005-.005.01-.008.013-.013.173-.21.292-.445.38-.688l29.25-52.285c5.366-9.26 8.215-11.554 9.179-12.112 2.435 1.81 10.825 8.044 21.93 16.272zm-75.611 42.302c4.495 2.626 7.89 4.625 9.82 5.787l-4.045 7.23-8.551-5.054 1.76-3.108c.097-.17.172-.35.224-.538.46-1.664.697-3.096.792-4.317zm-94.976-61.204 31.078-52.639 105.68 62.654c-.463.76-.933 1.544-1.415 2.376l-28.233 50.465c-12.95-7.797-74.981-43.562-107.558-62.322a2.36 2.36 0 0 0 .448-.534zm220.84 274.877c-13.273-8.984-26.698-17.896-40.246-26.541l44.462-65.804 38.386 23.126c.052.031.105.06.159.087a8.855 8.855 0 0 0 3.489.954 20.2 20.2 0 0 0 -4.038 5.053zm43.317 29.69-5.969-4.112c-11.004-7.585-22.148-15.265-33.407-22.913l42.285-63.234c.039-.058.076-.118.11-.18.04-.073 4.309-7.677 8.95-5.387l37.055 22.82zm3.919 2.7 90.65-135a173.603 173.603 0 0 0 4.803-5.744c3.961-3.849 10.716-8.89 21.038-12.378 7.654 11.252 17.48 34.256 27.043 58.504-6.52.327-20.132 2.924-30.669 17.794-12.282 17.333-62.643 93.412-70.64 105.5-14.247-9.482-28.342-19.12-42.225-28.677zm-2.776 3.862c26.276 18.087 53.297 36.503 80.75 53.54 17.568 10.903 33.123 15.631 45.623 19.431 5.34 1.623 10.391 3.186 14.942 5.002-1.973 5.378-2.418 9.132-2.873 12.999-.083.705-.168 1.419-.263 2.15-.929 7.179-4.43 13.792-4.836 14.54l-26.129 39.465-30.715-19.893c1.723-4.567.143-9.889-4.096-12.704l-68.987-45.773a10.665 10.665 0 0 0 -8.057-1.57c-2.482.501-4.654 1.821-6.218 3.753l-18.545-12.98c7.64-27.726 24.538-51.497 29.404-57.961zm224.963 392.517c-.823-4.248-2.464-9.823-4.892-16.54-5.86-16.214-19.428-50.595-24.216-62.683 19.44 4.393 39.172 1.023 58.413-2.27 4.55-.78 9.256-1.584 13.902-2.28 2.414-.36 5.683-.432 7.558 1.274 1.448 1.325 1.612 3.283 1.628 3.845l-52.392 78.654zm-34.218-85.557c-3.902-1.27-7.79-2.873-11.666-4.965-12.333-6.658-24.218-15.183-35.713-23.429-5.792-4.155-11.781-8.45-17.732-12.438-.181-.113-9.561-5.931-13.005-13.297 9.632-1.303 19.032 5.963 19.134 6.043.056.045.116.087.175.126l6.116 3.977c19.729 12.846 35.524 23.12 51.486 29.597 4.9 4.456 2.632 11.282 1.205 14.386zm4.638 1.339c1.545-3.592 2.64-8.528 1.265-13.11 17.783 5.88 36.508 6.902 61.706 1.366 2.22-.487 4.304-.992 6.317-1.507 2.187 2.715 3.228 5.153 3.016 7.118a3.929 3.929 0 0 1 -.76 1.962c-4.518.683-9.063 1.457-13.464 2.21-20.07 3.435-39.276 6.685-58.08 1.96zm-86.8-154.619 177.667 115.067c.005.006 4.598 3.308 3.802 7.259-.687 3.406-5.852 10.004-32.72 15.906-27.302 5.998-46.38 4.21-65.53-3.491-.04-.016-.08-.035-.12-.049-15.488-6.248-31.035-16.359-51.03-29.377l-6.034-3.926c-1.237-.95-12.788-9.485-24.77-6.57l-10.454-6.885c8.726-14.987 7.907-34.435-3.554-48.779a43.201 43.201 0 0 0 -8.045-7.756zm-135.64-28.726 79.801 52.613a43.06 43.06 0 0 0 -17.777 8.441c-3 2.392-5.591 5.107-7.776 8.051-20.21-13.31-36.995-24.366-40.314-26.553-3.166-7.747-9.327-23.897-13.933-42.552zm7.173 39.246c.067-.095.137-.188.2-.286.053.138.103.272.157.41zm39.21 48.292-46.932-30.944a1.83 1.83 0 0 0 -.135-.084c-.124-.07-11.033-6.34-16.725-14.926 13.273-.53 22.726.988 28.108 4.532 0 0 .008.006.01.006l.004.004 40.923 26.953a43.292 43.292 0 0 0 -5.252 14.46zm19.415 38.061a38.459 38.459 0 0 1 -6.889-6.704c-10.144-12.697-10.92-29.885-3.293-43.194l30.095 19.82zm46.428-61.507a38.48 38.48 0 0 1 6.952 6.754c10.144 12.696 10.92 29.883 3.293 43.192l-30.161-19.864zm-3.981-2.606-19.909 30.07-30.112-19.832a38.46 38.46 0 0 1 6.769-6.954c12.713-10.136 29.926-10.91 43.252-3.284zm4.848 63.484c-12.735 10.153-29.985 10.913-43.32 3.245l19.912-30.076 30.178 19.877a38.465 38.465 0 0 1 -6.77 6.954zm-12.161-118.723 30.714 19.892-20.772 31.375a43.564 43.564 0 0 0 -23.854-5.837l-88.578-58.4c-3.835-17.614-5.894-36.726-2.615-52.725.18-.874.377-1.743.577-2.612l17.687 12.378a10.706 10.706 0 0 0 -.064 4.532 10.692 10.692 0 0 0 2.124 4.575 10.678 10.678 0 0 0 2.448 2.235l68.985 45.773a10.667 10.667 0 0 0 8.058 1.57 10.673 10.673 0 0 0 5.29-2.756zm-77.576-59.351a5.934 5.934 0 0 1 4.483.868l68.987 45.773a5.97 5.97 0 0 1 1.67 8.268 5.929 5.929 0 0 1 -3.795 2.537 5.935 5.935 0 0 1 -4.482-.87l-68.987-45.772a5.902 5.902 0 0 1 -2.54-3.79 5.907 5.907 0 0 1 .87-4.478 5.926 5.926 0 0 1 3.794-2.536zm283.506 58.523-9.62-6.106 45.792-71.972 9.619 6.107zm55.884-130.645c9.29 22.537-9.21 48.309-11.912 51.886l-7.256-4.606a2.38 2.38 0 0 0 -3.285.73l-48.345 75.985a2.375 2.375 0 0 0 .732 3.282l5.312 3.372-22.014 34.496-17.693-11.817c-.185-.12-11.472-7.423-22.638-17.04l53.314-79.736c.462-.653 11.598-16.824 4.437-39.71 21.482-4.377 47.029-10.841 69.348-16.842zm-63.816 10.8c-16.456 3.543-30.978 6.058-40.483 6.476-31.188 1.375-37.729-13.017-45.302-29.677-1.406-3.093-2.86-6.29-4.497-9.443-2.598-4.998-6.541-14.817-11.236-27 8.63-3.64 43.581-16.484 70.2 1.44 26.964 18.155 30.78 50.099 31.318 58.204zm-128.752 63.047c-4.741-1.895-9.907-3.493-15.363-5.152-10.811-3.287-22.842-6.957-36.512-14.31l49.998-71.987c.181-.286 11.117-17.692 28.026-20.92 3.281 8.313 6.064 14.96 8.096 18.87 1.58 3.04 3.008 6.18 4.388 9.217 2.139 4.704 4.254 9.332 6.862 13.564-3.204 2.438-8.974 9.238-20.663 27.805-8.869 14.088-17.012 28.445-17.092 28.588-3.54 5.82-5.998 10.459-7.74 14.325zm-1.478 26.126c.533-1.871.988-3.89 1.257-5.968.097-.75.184-1.482.27-2.206.487-4.139.952-7.96 3.385-13.903l.014-.025c.007-.015.009-.03.015-.045 1.665-4.053 4.236-9.081 8.382-15.899 14.032-24.768 30.814-50.96 36.325-54.884.223.293.434.595.663.883 3.998 5.003 9.196 9.107 16.743 11.594-1.379 5.465-14.999 26.157-37.347 54.17-11.883 15.878-17.209 18.786-23.374 22.152-.64.35-1.287.702-1.947 1.073-1.5.842-2.976 1.902-4.386 3.058zm120.004-82.198c6.764 20.952-3.559 35.933-3.667 36.087l-52.983 79.242c-3.545-3.239-6.952-6.662-9.846-10.11-2.517-2.999-5.145-6.214-7.83-9.497-7.302-8.93-14.835-18.126-21.85-25.182 2.763-2.955 5.911-6.728 9.648-11.72.057-.071 10.345-12.981 20.112-26.464 12.712-17.547 16.922-25.453 18.052-29.385 5.099 1.109 11.106 1.598 18.317 1.28 7.55-.333 18.037-1.915 30.047-4.25zm-212.687 9.95c7.951-12.019 58.318-88.107 70.565-105.392 10.418-14.701 24.275-15.848 28.637-15.818 3.875 9.917 7.68 19.926 11.25 29.32 2.88 7.577 5.609 14.755 8.099 21.155-18.471 3.996-29.758 22.01-30.25 22.809l-50.189 72.254a149.936 149.936 0 0 1 -3.81-2.28c-11.512-7.143-22.955-14.536-34.302-22.047zm63.094-195.214a413.372 413.372 0 0 0 4.416 6.707 66.636 66.636 0 0 0 -9.658 4.32c2.696-4.471 4.312-8.12 5.242-11.027zm-6.327-10.697c.608 1.288 1.577 3.01 2.713 4.907-.237 3.33-2.248 11.282-13.578 25.546-3.389 3.31-5.034 5.91-5.35 6.437l-38.978 58.049-37.294-22.969a2.459 2.459 0 0 0 -.158-.087c-1.23-.634-2.43-.935-3.587-1a20.17 20.17 0 0 0 4.069-5.165l59.035-91.377c11.766 10.965 23.83 19.639 33.128 25.66zm156.596 86.773-21.303 38.676c-13.274-8.057-30.08-10.628-48.81-7.417-10.925 1.872-19.585 5.168-23.564 6.858a5824.6 5824.6 0 0 1 -4.784-12.557c-11.856-31.195-26.273-69.117-37.5-88.462l-.005-.01c-.588-1.13-1.465-3.172-.723-4.156 1.593-2.11 8.85-1.793 13.472-.903 37.64 20.325 82.863 45.378 123.217 67.971zm137.86 82.959c11.93 25.724-7.438 51.519-24.553 74.296-3.722 4.953-7.237 9.631-10.264 14.109l-21.082 31.183-32.884-21.284 19.49-30.632a2.375 2.375 0 0 0 -.732-3.282l-2.349-1.49c1.718-2.29 6.533-9.099 10.323-18.228 5.712-13.754 6.443-26.634 2.187-37.469 26.784-7.266 47.94-13.564 49.973-14.171.041-.012.076-.033.116-.047a2619.36 2619.36 0 0 0 9.774 7.015zm-62.896 232.62-84.41-56.378 22.075-34.59 4.308 2.735c1.109.705 2.58.377 3.285-.731l26.302-41.34 80.522 52.118-52.082 78.187zm-53.473 80.276c-1.407.129-4.952.187-7.643-2.057-2.238-1.867-3.49-4.987-3.735-9.275 13.699-4.374 21.043-9.626 22.288-15.928 1.39-7.02-5.527-11.904-5.823-12.11l-177.693-115.085 23.875-36.062c.288-.395 6.79-9.226 13.277-12.864.644-.362 1.274-.706 1.899-1.047 3.644-1.99 7.179-3.928 11.86-8.323 6.846 6.888 14.294 15.98 21.517 24.813 2.697 3.3 5.338 6.53 7.867 9.545 13.32 15.872 36.15 30.633 37.115 31.253l106.032 70.823-50.836 76.316zm-3.074 4.615a9.665 9.665 0 0 0 -.136-.235c.09.011.182.023.271.032zm-222.355-2.05-35.812-23.14 17.513-26.453c15.016 8.77 34.532 7.97 48.92-3.5 3-2.393 5.591-5.108 7.776-8.053l10.67 7.028c.888 2.713 2.4 5.249 4.19 7.488 4.698 5.88 11.05 9.799 11.428 10.028 5.8 3.89 11.759 8.163 17.52 12.296 11.616 8.332 23.626 16.949 36.226 23.75 4.408 2.378 8.846 4.178 13.302 5.559 2.725 6.865 18.934 47.756 25.476 65.856 5.909 16.346 5.28 20.687 5.161 21.218-.006.014-.007.029-.013.042l-6.21 9.322-88.245-56.32c1.714-4.564.133-9.877-4.1-12.69l-50.45-33.615a10.668 10.668 0 0 0 -8.06-1.572 10.676 10.676 0 0 0 -5.292 2.756zm59.042 47.197a5.935 5.935 0 0 1 -4.482-.869l-50.45-33.617-.002-.002a5.92 5.92 0 0 1 -2.54-3.79 5.927 5.927 0 0 1 4.664-7.013 5.934 5.934 0 0 1 4.482.867l50.45 33.616a5.968 5.968 0 0 1 1.674 8.27 5.93 5.93 0 0 1 -3.796 2.538zm-232.063-158.995c19.343-15.841 43.059-26.236 64.826-28.058.936 1.721 2.056 3.364 3.289 4.906 6.276 7.858 15.34 13.189 16.357 13.772l48.914 32.25c-.48 10.133 2.565 20.474 9.383 29.007a43.22 43.22 0 0 0 7.98 7.71l-17.537 26.488zm-10.803 9.858c2.243-2.303 4.598-4.507 7.016-6.642l134.373 86.824-22.588 34.117c-62.61-43.827-125.088-87.584-135.054-94.563 4.62-6.37 10.02-13.339 16.253-19.736zm-19.027 23.6c9.826 6.881 72.459 50.746 135.202 94.667l-21.256 32.106c-59.413-41.338-127.832-88.275-138.386-95.511 8.244-9.48 16.212-19.666 24.44-31.263zm40.566 131.472c-10.436-3.05-64.118-20.507-104.534-66.651 10.216-6.043 19.86-12.434 28.494-21.446 1.329-1.387 2.64-2.79 3.946-4.2.068-.067.124-.133.185-.199a341.633 341.633 0 0 0 3.737-4.12c5.76 3.951 47.66 32.696 94.117 64.824-5.025 3.819-15.616 13.332-25.945 31.792zm-13.673 49.898c12.679-53.748 37.943-74.621 43.773-78.816a19225.588 19225.588 0 0 1 40.647 28.195l-41.17 62.186c-14.433-3.42-29.1-7.272-43.25-11.565zm49.585-369.743 32.617 22.159c-.179.789-.36 1.578-.523 2.373-2.254 10.998-5.05 40.553 12.774 90.206.302 1.667.609 5.289-.806 6.911-.225.259-.913 1.046-3.075.859-5.861-.915-12.991-1.096-21.498-.545h-.01l-.07.005c-23.57 1.538-49.484 12.867-70.246 30.24l-59.317-38.327a2.388 2.388 0 0 0 -1.185-.38c-.347-.015-1.216.032-2.67.603-.483-3.863-1.739-10.082-4.987-13.865-3.704-4.286-1.413-9.092.525-11.246.047-.051.09-.104.132-.159l19.123-25.363a108.155 108.155 0 0 0 2.41-3.374c2.255-3.245 4.588-6.6 7.583-8.672.912-.63 1.93-1.166 3.007-1.733.282-.148.568-.309.853-.461l34.833 23.482c-8.957 14.53-19.174 31.87-19.843 33.005a2.376 2.376 0 0 0 .845 3.253 2.38 2.38 0 0 0 3.258-.844c.257-.436 25.779-43.747 31.673-51.206 2.227-2.819 3.148-5.704 2.735-8.573-.23-1.596-.875-3.06-1.747-4.4zm-32.71-22.22 28.768 19.543-32.85 42.956c-1.667-1.534-3.448-2.803-4.842-3.792-4.376-3.105-16.492-11.591-21.22-14.901l30.143-43.807zm-32.84 47.724c4.748 3.324 16.8 11.765 21.16 14.86 2.738 1.94 7.317 5.189 7.818 8.66.222 1.55-.353 3.17-1.76 4.951-1.87 2.367-5.513 7.989-9.69 14.69l-33.048-22.277c3.366-2.877 5.96-6.8 8.283-10.314l1.004-1.512zm2.033-68.653 26.872 18.255-35.628 51.823-28.85-20.603c3.44-4.979 7.263-10.255 11.642-16.066 5.44-7.226 11.131-14.467 16.636-21.47 3.12-3.97 6.233-7.947 9.328-11.939zm-83.41 48.902 30.845 19.618c-.073 6.015-8.776 25.29-17.366 31.313-3.284 2.302-4.813 1.362-5.315 1.053l-30.002-20.257c5.908-8.608 13.454-19.568 21.837-31.727zm24.686-35.77 27.485 19.38c-4.363 5.84-8.18 11.16-11.617 16.202-.562.825-1.41 1.91-2.308 3.06-2.692 3.443-5.841 7.482-7.072 11.319l-28.473-18.109a57740.004 57740.004 0 0 1 21.985-31.852zm24.936-36.085 29.845 20.274c-3.03 3.904-6.075 7.797-9.13 11.682-5.052 6.43-10.256 13.06-15.3 19.711l-27.648-19.495a98958.42 98958.42 0 0 1 22.233-32.172zm-14.731-93.384 14.777-25.805 66.225 38.533c3.64 2.216 7.143 2.862 10.37 1.892 4.423-1.327 6.637-5.291 7.04-6.079l18.7-31.331 18.586 11.197-44.397 65.708c-3.338-2.112-6.68-4.217-10.03-6.29-26.645-16.492-54.068-32.37-81.271-47.825zm-129.946-115.581c1.777-3.105 3.557-6.208 5.336-9.31 6.73-11.726 13.687-23.848 20.31-35.912a12.607 12.607 0 0 0 1.973-3.06c.179-.197.36-.39.558-.547.847-.673 1.36-.616 3.183-.085 1.334.388 2.994.872 4.911.47 3.402-.716 5.779-3.895 7.514-6.218l.25-.332c2.842-3.784 4.996-8.062 6.516-11.42 27.635 15.923 63.592 36.675 84.225 48.693.18.753.38 2.517-.436 5.616l-35.57 62.798c-.063.113-.118.23-.162.353-.031.077-1 2.47-3.742 3.37-3.053 1.006-7.363-.153-12.463-3.35-4.652-2.917-14.497-8.984-25.895-16.008-18.272-11.262-43.339-26.71-56.508-35.058zm17.103-61.546c3.995 2.494 6.313 5.168 6.719 7.808.174 1.133-.025 2.164-.344 3.02-.76.993-1.361 2.04-1.866 2.96-6.642 12.106-13.638 24.295-20.404 36.083a7944.273 7944.273 0 0 0 -5.222 9.112c-2.639-1.7-4.343-2.842-4.787-3.229a2.314 2.314 0 0 0 -.519-.391c7.875-18.061 16.66-36.474 26.423-55.363zm356.792 62.592c-4.206-4.026-10.885-9.902-19.084-16.856l16.81-20.517a2.373 2.373 0 0 0 -.334-3.346 2.382 2.382 0 0 0 -3.348.334l-16.763 20.46c-19.024-16-44.808-36.726-67.214-53.96 11.237-10.3 99.795-91.868 129.304-130.57 2.686 4.074 3.822 6.507 3.848 6.562.054.12.12.24.195.35 12.628 18.655 39.74 41.55 80.581 68.044 24.726 16.04 47.24 28.588 54.843 32.746-2.844 3.358-5.22 7.585-7.524 11.715-1.289 2.308-2.506 4.489-3.715 6.336-4.283 6.54-8.544 13.257-12.663 19.755-3.449 5.435-7.013 11.056-10.573 16.545-20.029 30.882-43.856 66.12-73.542 94.602-9.781-5.688-17.223-10.38-21.058-13.53-7.167-5.887-13.399-10.22-19.425-14.409-9.381-6.521-18.241-12.681-30.338-24.26zm149.407 94.886c-26.994-14.311-54.56-28.926-74.304-40.216 22.05-21.356 40.842-46.258 57.234-70.303 5.999 3.22 26.931 14.532 40.237 22.665 4.307 2.633 6.73 5.14 7.205 7.45.568 2.781-1.59 5.804-4.088 9.304-1.214 1.7-2.47 3.46-3.54 5.375-1.87 3.35-2.31 6.537-1.306 9.47a10.21 10.21 0 0 0 1.704 3.066c1.771 2.216 4.052 3.378 4.665 3.662 3.157 1.795 37.025 21.035 68.336 38.562l-34.416 44.125c-17.787-9.863-40.106-21.697-61.727-33.16zm151.174 87.698c-27.623-17.65-56.167-35.868-85.252-52.183l34.421-44.13c22.866 12.779 43.532 24.161 48.663 26.465 12.584 5.652 16.412-1.21 20.114-7.844.665-1.192 1.353-2.426 2.113-3.65.68-1.096 1.586-1.73 2.854-1.998 4.41-.933 11.309 2.902 13.594 4.46.07.046.142.09.216.13l39.127 20.972-44.672 77.756a6403.922 6403.922 0 0 0 -23.684-15.191zm128.809-149.958-50.589 88.055-39.14-20.98c-1.43-.959-10.203-6.578-17.153-5.108-2.516.531-4.56 1.964-5.913 4.143-.819 1.32-1.534 2.601-2.226 3.84-3.71 6.651-5.404 9.687-14.005 5.824-12.277-5.513-119.805-66.609-120.89-67.225a2.242 2.242 0 0 0 -.244-.121c-.018-.008-3.003-1.345-3.89-3.99-.537-1.596-.21-3.475.968-5.587.942-1.685 2.12-3.335 3.258-4.93 2.88-4.035 5.858-8.207 4.876-13.015-.766-3.755-3.748-7.11-9.384-10.555-13.106-8.011-33.5-19.054-40.043-22.57a1362.263 1362.263 0 0 0 13.342-20.224c3.574-5.51 7.145-11.14 10.599-16.586 4.11-6.483 8.362-13.186 12.625-19.696 1.303-1.988 2.56-4.24 3.89-6.625 2.703-4.84 5.496-9.848 8.823-12.895 13.176-12.07 30.935 6.6 31.685 7.402.173.184.374.341.595.462.486.266 48.736 26.706 58.814 32.426 9.277 5.266 16.759.383 19.622-3.139 1.426-1.096 10.1-7.59 21.69-12.425 16.62-6.934 31.059-7.371 42.913-1.3 30.89 15.82 35.165 45.648 30.601 60.732-3.05 10.084-.604 16.797 1.986 20.653 2.628 3.92 5.96 5.75 6.572 6.064zm-789.364-99.409c-18.622 35.839-33.785 69.984-45.849 103.25a2.375 2.375 0 0 0 1.428 3.045 2.38 2.38 0 0 0 3.048-1.426c.858-2.365 1.747-4.74 2.637-7.115.135.132.282.255.452.355a2677.2 2677.2 0 0 0 9.255 5.41c5.385 3.138 10.952 6.383 16.382 9.634 30.493 18.254 61.974 35.988 92.417 53.138 28.368 15.982 57.454 32.37 86.054 49.352a130882.62 130882.62 0 0 0 -37.647 54.422l-.005.007-.002.004a96155.545 96155.545 0 0 0 -24.88 36.003l-.009.009-.003.007c-26.735 38.706-53.127 76.99-59.46 86.43-13.305 19.835-54.048 35.015-54.459 35.167a2.375 2.375 0 0 0 -1.41 3.05c1.957 5.326 5.877 10.99 9.464 15.479 3.832 4.796 7.285 8.252 7.557 8.523 40.404 37.163 96.11 96.174 101.989 106.685 2.062 3.675 4.108 6.078 6.192 7.322-.162.17-.32.344-.482.514-10.493 10.953-22.797 18.009-35.823 25.48-1.942 1.113-3.898 2.235-5.866 3.38a565.932 565.932 0 0 1 -11.04 6.28c-.853.37-4.728 2.1-9.068 4.814-6.826 3.445-13.869 6.564-21.375 9.126-.045.015-.084.04-.128.058-7.38-4.133-15.44-7.747-24.476-10.56a2.381 2.381 0 0 0 -2.98 1.561 2.375 2.375 0 0 0 1.563 2.978c27.455 8.548 45.871 24.926 63.68 40.765 1.559 1.386 3.108 2.764 4.653 4.127 18.964 16.73 32.298 26.721 32.431 26.82 65.42 42.904 228.958 63.216 230.545 63.379 16.964 1.733 36.384 5.4 45.358 7.944 9.578 2.716 14.681-1.378 14.894-1.554.057-.047.112-.096.164-.148 6.991-6.973 15.367-7.008 25.6-.107 6.435 4.336 12.461 1.066 12.715.926 12.633-7.878 42.307-20.386 55.481-22.466 14.335-2.263 24.656-19.077 25.088-19.792l240.251-360.664c.084-.126.156-.26.215-.401 3.05-7.3 3.403-24.426-17.106-36.984-16.025-9.815-37.313-25.18-52.856-36.398-7.813-5.638-13.983-10.091-17.236-12.213-10.438-6.807-162.638-92.783-246.839-137.753-.356-.18-30.742-15.609-56.169-42.1-8.215-8.56-17.343-16.452-25.254-23.177-25-21.253-51.11-41.049-80.194-62.875-29.088-21.826-60.812-40.131-91.493-57.833l-8.38-4.84c-23.105-13.361-76.515-44.766-86.398-50.58 1.559-2.366 3.104-4.733 4.68-7.098 13.57 8.006 29.938 17.38 47.26 27.3 36.85 21.1 78.617 45.014 105.02 62.482 28.693 18.981 106.798 81.643 127.094 101.073 12.366 11.837 21.794 18.392 30.912 24.731 5.95 4.136 12.102 8.414 19.123 14.18 4.181 3.433 12.36 8.563 23.072 14.76.073.05.151.088.228.13 20.052 11.59 48.9 26.884 77.135 41.853 22.323 11.834 45.406 24.072 63.425 34.102 29.793 16.585 59.087 35.302 87.416 53.401l7.495 4.787a7077.897 7077.897 0 0 1 48.473 31.236 8081.66 8081.66 0 0 1 18.995 12.381c1.861 1.216 3.776 2.628 5.803 4.124 4.798 3.54 9.76 7.2 14.984 8.993l.749.231c3.946 1.218 7.698.366 11.327-.46 3.21-.728 6.24-1.418 9.019-.506 2.282.749 4.215 2.341 6.261 4.027 2.22 1.83 4.517 3.721 7.465 4.692 5.63 1.857 12.558 1.104 17.38.147a2.376 2.376 0 1 0 -.929-4.663c-4.26.846-10.314 1.533-14.96.001-2.1-.692-3.959-2.223-5.928-3.845-2.296-1.892-4.671-3.848-7.804-4.876-4.033-1.323-7.86-.453-11.56.388-3.157.718-6.138 1.395-8.872.551l-.677-.207c-4.455-1.532-9.118-4.972-13.628-8.298-2.082-1.536-4.05-2.987-6.023-4.277a8230.429 8230.429 0 0 0 -39.824-25.87l112.046-195.024a2.38 2.38 0 0 0 -4.128-2.367l-11.921 20.75-30.686-17.41a2.28 2.28 0 0 0 -.145-.076c-.433-.216-10.853-5.583-6.158-21.103 6.279-20.755-3.147-51.06-32.986-66.338-31.232-15.996-68.382 13.15-69.948 14.399-.152.121-.288.26-.407.415-.542.694-5.608 6.733-13.69 2.146-9.666-5.486-54.243-29.922-58.545-32.28-7.348-7.716-23.821-18.688-36.805-8.492-12.73-6.921-107.276-59.212-134.927-99.816-.855-1.804-7.333-14.692-25.067-31.37-16.884-15.879-34.031-31.294-47.081-42.949-4.628-4.133-7.044-7.959-7.179-11.374-.091-2.285.844-4.438 2.859-6.575 1.3-1.127 15.205-13.323 29.706-31.2 14.055-17.326 31.59-43.724 35.319-71.079a2.38 2.38 0 0 0 -4.716-.64c-3.581 26.265-20.629 51.87-34.3 68.726-14.886 18.351-29.062 30.546-29.204 30.668-.061.05-.118.106-.173.164-2.962 3.1-4.39 6.508-4.246 10.126.13 3.289 1.583 6.675 4.332 10.116 1.221 1.528 2.699 3.067 4.428 4.612 13.031 11.637 30.147 27.025 46.993 42.867 7.962 7.49 13.577 14.211 17.376 19.396-28.829 38.611-122.265 124.407-130.276 131.739-13.681-10.458-25.828-19.38-33.992-24.78-26.531-17.553-68.369-41.508-105.282-62.645-17.206-9.852-33.466-19.165-46.963-27.125a1565.266 1565.266 0 0 1 40.005-56.852c11.202-15.187 23.46-30.335 35.316-44.984 30.188-37.307 61.405-75.883 80.116-120.69 9.017-21.597 13.497-40.599 13.694-58.094a2.38 2.38 0 1 0 -4.759-.053c-.19 16.873-4.55 35.294-13.328 56.317-18.448 44.18-49.448 82.485-79.425 119.531-11.888 14.69-24.18 29.88-35.445 45.153-30.399 41.21-58.303 83.156-82.938 124.677-12.042 20.298-23 39.968-32.984 59.16-.04.06-.085.114-.12.178-.043.081-.069.165-.102.248z" mask="url(#i)" transform="translate(903 -.522)"/></g></svg>