<svg width="270" height="60" xmlns="http://www.w3.org/2000/svg"><g fill="none" fill-rule="evenodd"><path d="M191.21 41h-1.53l-7.94-18.71h3.13l5.5 13.17c.132.26.197.549.19.84.021-.292.1-.578.23-.84l5.11-13.17h3.1L191.21 41zm12.13-.46V22.32h2.9v15.84h8.63v2.41l-11.53-.03zm15.66 0V22.32h11.3v2.4h-8.4V30h6.95v2.4h-6.95v5.76h8.63v2.41L219 40.54zm24.45.53c-6.9 0-7.87-4.35-7.87-8V22.32h2.87v11.17c0 3.32 1.72 5 5 5 3.28 0 5-1.72 5-5V22.32h2.86v10.8c0 3.63-1 8-7.86 8m20.06-16.38v15.83h-2.86V24.72h-6.49v-2.4H270v2.4l-6.49.02z" fill="#CD232A"/><path d="M53.59 59.74v-6.17a5.14 5.14 0 01-.31.91l-2.38 5.27h-1l-2.14-5a3 3 0 01-.3-1v6h-1.21V52h1.57l2.51 5.72c.083.194.133.4.15.61a3.27 3.27 0 01.16-.61L53.25 52h1.55v7.75l-1.21-.01zm7.47-6.62l-1.33 3.47h2.64l-1.31-3.47zm2.54 6.63l-.89-2.16h-3.32l-.88 2.16h-1.23l3.16-8h1.22l3.16 7.94H63.6v.06zm8.28 0l-3.26-3.87L71.78 52h1.64l-3.27 3.87 3.47 3.87-1.74.01zm-4.58 0h1.23V52H67.3v7.75zm8.81 0V52h4.8v1h-3.57v2.23h3v1h-3v2.45H81v1l-4.89.07zm7.91 0V52h1.23v6.72h3.66v1l-4.89.03zm9.51-6.62l-1.33 3.45h2.64l-1.31-3.47v.02zm2.54 6.63l-.89-2.16h-3.32L91 59.75h-1.25l3.16-8h1.22l3.16 7.94h-1.22v.07zm6-6.63l-1.33 3.47h2.65l-1.32-3.47zm2.55 6.63l-.89-2.16h-3.33l-.87 2.16h-1.25l3.16-8h1.21l3.16 7.94h-1.21l.02.06zm7.38-6.53c-.26-.2-.36-.21-1.25-.21h-1.22v2.54h1.22c.79 0 1 0 1.3-.32a1.36 1.36 0 00-.05-2v-.01zm.69 6.51l-2-3.16h-1.12v3.16h-1.23V52h2.61c1.86 0 2.88.77 2.88 2.2a2.19 2.19 0 01-1.83 2.29l2.14 3.25h-1.45zm8.35-6.2a3.19 3.19 0 00-1-.47 3.69 3.69 0 00-1.09-.16c-1 0-1.59.35-1.59 1a.73.73 0 00.1.41c.23.34.48.48 2 1.21s1.93 1.25 1.93 2.21c0 1.37-1.07 2.2-2.82 2.2a4.92 4.92 0 01-1.59-.24 6.59 6.59 0 01-1.1-.59l.55-1.05a4 4 0 001 .61c.405.172.84.26 1.28.26.9 0 1.44-.38 1.44-1s-.26-.86-.88-1.15l-1.39-.78c-1.18-.57-1.71-1.22-1.71-2.05 0-1.28 1.1-2.1 2.82-2.1a5.17 5.17 0 011.44.19c.35.112.687.267 1 .46l-.44 1 .05.04zm25.51-.54v6.73h-1.21V53h-2.76v-1h6.73v1h-2.76zm7.36.1l-1.33 3.47h2.64l-1.31-3.47zm2.54 6.63l-.89-2.16h-3.32l-.88 2.16h-1.23l3.16-8h1.22l3.16 7.94h-1.22v.06zm8 0l-2.24-3-2.14 3h-1.42l2.85-4-2.7-3.73h1.49l2 2.75 2-2.75h1.43l-2.86 3.77 3 4-1.41-.04zm6.19-6.62l-1.33 3.47H172l-1.31-3.47h-.05zm2.54 6.63l-.89-2.16H169l-.88 2.16h-1.23l3.16-8h1.22l3.16 7.94h-1.22l-.03.06zm6.06-6.74v6.73H178V53h-2.76v-1H182v1h-2.76zm5.07 6.72V52h4.8v1h-3.57v2.23h3v1h-3v2.45h3.66v1l-4.89.04zm13.19-.35a4.78 4.78 0 01-2.21.58 4.83 4.83 0 01-2.22-.58c-.81-.49-1.11-1.27-1.11-2.81V52h1.21v4.8a2.13 2.13 0 104.25 0V52h1.21v4.58c0 1.54-.31 2.32-1.13 2.81m8.12-6.16c-.26-.2-.36-.21-1.25-.21h-1.22v2.54h1.22c.79 0 .95 0 1.29-.32a1.35 1.35 0 000-2l-.04-.01zm.69 6.51l-2-3.16h-1.12v3.16h-1.23V52h2.61c1.86 0 2.88.77 2.88 2.2a2.2 2.2 0 01-1.81 2.29l2.14 3.25h-1.47zm8.27-6.2a3.12 3.12 0 00-1-.47 3.62 3.62 0 00-1.08-.16c-1 0-1.59.35-1.59 1a.73.73 0 00.1.41c.22.34.48.48 2 1.21s1.99 1.2 1.99 2.16c0 1.37-1.07 2.2-2.82 2.2a4.87 4.87 0 01-1.59-.24 6.59 6.59 0 01-1.1-.59L210 58a4 4 0 001 .61c.405.171.84.26 1.28.26.91 0 1.45-.38 1.45-1s-.26-.86-.88-1.15l-1.42-.72c-1.18-.57-1.72-1.22-1.72-2.05 0-1.28 1.11-2.1 2.83-2.1a5.17 5.17 0 011.44.19c.35.112.687.266 1 .46l-.4 1.04zm-81.35 1.74h3.27v1.2h-3.27v3.27H132v-3.27h-3.28v-1.2H132V52h1.2l.03 3.28z" fill="#3D505A"/><path fill="#D2232A" d="M121.88 7.48h7.48V0h-7.48z"/><path fill="#7AA3AA" d="M136.84 7.48h7.47V0h-7.47z"/><path fill="#314D59" d="M129.36 7.48h7.48V0h-7.48zM17.28 40.53V26a10.28 10.28 0 01-.72 2.13L11 40.53H8.66l-5-11.64a7.33 7.33 0 01-.72-2.4v14H0v-18.2h3.7l5.92 13.47c.205.46.333.95.38 1.45a9.85 9.85 0 01.38-1.45l6.14-13.47h3.67v18.24h-2.91zM35.1 22c5.88 0 10.11 4 10.11 9.46 0 5.46-4.27 9.47-10.11 9.47v-.05c-5.88 0-10.11-4-10.11-9.47 0-5.47 4.23-9.41 10.11-9.41zm0 2.39a7 7 0 107 7 6.9 6.9 0 00-7-7zM58.67 24.39a7 7 0 107 7 6.9 6.9 0 00-7-7m0 16.49c-5.88 0-10.11-4-10.11-9.47 0-5.47 4.23-9.41 10.11-9.41 5.88 0 10.11 4 10.11 9.46 0 5.46-4.28 9.47-10.11 9.47M73.43 40.58h2.9V22.29h-2.9zM79.06 42.9v2.91a9 9 0 008.61-9V22.29h-2.91v14.5a6.12 6.12 0 01-5.71 6.11M94.38 40.58V22.3h11.3v2.4h-8.4V30h6.94v2.41h-6.94v5.76h8.62v2.4zM122.57 40.53l-7.67-9.12 7.44-9.12h3.86l-7.71 9.12 8.16 9.12h-4.08zm-10.79 0h2.89V22.3h-2.89v18.23zM131.65 40.53h2.9V22.29h-2.9zM154.94 40.76l-10.3-13.16a4.27 4.27 0 01-.95-1.68v14.61H141V22.29h2.91l10.3 13a3.46 3.46 0 01.72 1.68V22.29h2.63v18.47h-2.62zM168.9 22.29c3.51 0 5.87.81 7.55 2.52a10.38 10.38 0 012.6 6.6 10.09 10.09 0 01-2.64 6.6V38c-1.64 1.72-4 2.52-7.51 2.52h-6.72V22.29h6.72zm-.23 2.45h-3.59v13.39h3.36c2.63 0 3.89-.35 5.15-1.34a7.27 7.27 0 002.4-5.42 7.09 7.09 0 00-2.44-5.37c-1.14-1-2.32-1.26-4.88-1.26z"/></g></svg>